<svg width="196" height="196" viewBox="0 0 196 196" fill="none" xmlns="http://www.w3.org/2000/svg">
<path d="M92.2764 92.3548C92.4332 92.3156 94.0404 89.258 94.0404 89.258C94.0404 89.258 93.962 86.6708 93.962 85.4164C93.962 84.162 94.942 83.9268 95.2164 84.554C95.4908 85.1812 95.6868 87.0236 95.726 87.0236C95.7652 87.0236 97.2156 82.9076 97.6076 82.7116C97.9996 82.5156 101.763 84.5148 101.92 85.7692C101.998 86.3964 101.371 88.4348 100.665 90.3948C100.469 90.9436 98.5484 92.1196 98.5484 92.1196C98.1564 92.9036 97.686 93.6876 97.1372 94.3932L92.2764 92.3548Z" fill="#FFC9B0"/>
<path d="M97.0589 95.0207C96.9805 95.0207 96.9021 95.0207 96.8237 94.9815L92.0021 92.9431C91.6885 92.8255 91.5317 92.4335 91.6885 92.1199C91.7277 92.0415 91.7669 91.9631 91.8453 91.8847C92.0413 91.6103 92.7469 90.3167 93.4133 89.1015C93.4133 88.5135 93.3349 86.4751 93.3349 85.4167C93.3349 84.3583 93.9621 83.7311 94.4717 83.6527C95.0205 83.5351 95.5301 83.8095 95.7653 84.3191C95.8437 84.4759 95.8829 84.5935 95.9221 84.7503C96.7845 82.5943 96.9805 82.2807 97.2941 82.1631C97.4901 82.0455 97.7645 81.9279 99.1757 82.6335C99.9205 83.0255 102.312 84.3191 102.508 85.6911C102.625 86.5535 101.88 88.8663 101.175 90.6303C100.94 91.2575 99.7637 92.0807 98.9405 92.5903C98.5485 93.3743 98.0389 94.1583 97.4901 94.8639C97.4117 94.9423 97.2549 95.0207 97.0589 95.0207ZM93.1781 92.0807L96.8629 93.6487C97.2549 93.0607 97.6077 92.4727 97.9213 91.8455C97.9605 91.7279 98.0389 91.6495 98.1565 91.6103C98.8621 91.2183 99.4893 90.7479 100.038 90.1599C101.018 87.5335 101.332 86.1223 101.292 85.8479C101.175 85.1815 98.7837 83.6919 97.8429 83.3783C97.5293 84.0055 96.8629 85.6911 96.6277 86.3575C96.1965 87.4943 96.1181 87.6511 95.6869 87.6119C95.1773 87.5727 95.0989 87.1807 95.0205 86.5535C94.9421 86.0047 94.8637 85.4559 94.7069 84.9071C94.6285 85.0639 94.5893 85.2207 94.5893 85.4167C94.5893 86.6319 94.6677 89.2191 94.6677 89.2191C94.6677 89.3367 94.6285 89.4151 94.5893 89.5327C93.8837 90.7871 93.4917 91.5711 93.1781 92.0807Z" fill="#093F68"/>
<path d="M96.8238 90.5519C96.5102 90.5519 96.2358 90.2775 96.1966 89.9639C96.1966 89.0231 95.8438 88.1607 95.2558 87.4551C95.0206 87.2199 94.9814 86.8279 95.2166 86.5927C95.4518 86.3575 95.8438 86.3183 96.079 86.5535C96.9022 87.4551 97.3726 88.6703 97.4118 89.8855C97.451 90.2383 97.2158 90.5127 96.8238 90.5519Z" fill="#093F68"/>
<path d="M28.1846 68.7957C28.0278 68.7564 26.4206 65.6989 26.4206 65.6989C26.4206 65.6989 26.499 63.1117 26.499 61.8573C26.499 60.6029 25.519 60.3677 25.2446 60.9949C24.9702 61.6221 24.8134 63.4253 24.735 63.4253C24.6566 63.4253 23.2454 59.3093 22.8534 59.1133C22.4614 58.9173 18.6982 60.8773 18.5022 62.1709C18.4238 62.7981 19.051 64.8364 19.7958 66.7964C19.9918 67.3452 21.9126 68.5213 21.9126 68.5213C22.3046 69.3053 22.775 70.0893 23.3238 70.7949L28.1846 68.7957Z" fill="#FFC9B0"/>
<path d="M22.9318 71.2657C22.383 70.5601 21.8734 69.8153 21.4814 68.9921C20.6974 68.4825 19.4822 67.6593 19.247 67.0321C18.5806 65.2289 17.7966 62.9161 17.9534 62.0929C18.1494 60.7601 20.5798 59.4273 21.2854 59.0353C22.6966 58.3297 22.971 58.4865 23.167 58.5649C23.4806 58.7217 23.6766 58.9961 24.539 61.1521C24.5782 60.9953 24.6174 60.8777 24.6958 60.7209C24.8918 60.2113 25.4406 59.9369 25.9894 60.0545C26.499 60.1721 27.1262 60.6817 27.1262 61.8185C27.1262 62.9553 27.087 64.9153 27.0478 65.5033C27.675 66.7185 28.4198 68.0121 28.6158 68.2865C28.7334 68.4041 28.8118 68.5609 28.8118 68.7177C28.8118 68.9921 28.6942 69.2273 28.459 69.3449L23.6374 71.3833C23.559 71.4225 23.4806 71.4225 23.4022 71.4225C23.2062 71.4617 23.0494 71.3833 22.9318 71.2657ZM25.8718 66.0129C25.8326 65.9345 25.7934 65.8169 25.7934 65.6993C25.7934 65.6601 25.8718 63.1121 25.8718 61.8969C25.8718 61.7401 25.8326 61.5441 25.7542 61.3873C25.5974 61.9361 25.519 62.4849 25.4406 63.0337C25.3622 63.6609 25.2838 64.0529 24.7742 64.0921C24.3038 64.1313 24.2646 63.9745 23.8334 62.8377C23.559 62.1713 22.9318 60.4857 22.6182 59.8585C21.6774 60.1721 19.2862 61.6617 19.1686 62.3281C19.1294 62.6025 19.443 64.0137 20.423 66.6401C20.9718 67.1889 21.599 67.6985 22.3046 68.0905C22.383 68.1689 22.4614 68.2473 22.5398 68.3257C22.8534 68.9529 23.2062 69.5409 23.5982 70.1289L27.283 68.5609C26.9694 68.0513 26.5382 67.2673 25.8718 66.0129Z" fill="#093F68"/>
<path d="M23.6373 66.9924C23.9509 66.9924 24.2253 66.718 24.2645 66.4044C24.2645 65.4636 24.6173 64.562 25.2053 63.8956C25.4405 63.6604 25.4405 63.2684 25.1661 63.0332C24.9309 62.798 24.5781 62.798 24.3429 62.994C24.3037 63.0332 23.1277 64.1308 23.0101 66.326C22.9709 66.6788 23.2453 66.9532 23.5981 66.9924C23.5981 66.9924 23.5981 66.9924 23.6373 66.9924Z" fill="#093F68"/>
<path d="M98.9013 95.4125C98.2741 96.3141 93.2173 104.938 85.8477 108.505C83.9661 109.446 81.8885 109.917 79.8109 109.917C78.2037 109.917 76.0869 108.741 74.2837 107.525C73.3037 106.859 72.4413 106.153 71.8141 105.683C71.1869 105.213 70.8733 104.86 70.8733 104.86V108.153L70.8341 120.736H48.4901V107.133C48.4901 104.86 48.2157 102.625 48.0981 100.352C44.4525 98.1565 33.9469 91.7669 32.8885 90.3557C31.5949 88.6701 22.0693 71.6573 22.0693 71.6573L28.2237 65.7773L39.1997 83.8485L53.3509 93.1781C54.4093 93.1389 55.4677 93.0997 56.5261 93.0997C59.2309 93.0997 61.8965 93.3349 64.6013 93.2957C68.0509 93.2565 71.4221 94.5501 73.9701 96.9021C76.2437 98.9405 79.2621 100.901 81.6141 99.7637C85.9653 97.6469 90.3165 92.2373 91.6493 90.3165L98.9013 95.4125Z" fill="#5677FC"/>
<path d="M70.8734 121.363H48.5294C48.2158 121.363 47.9414 121.089 47.9414 120.775V107.173C47.9414 105.722 47.8238 104.233 47.7062 102.822C47.667 102.155 47.5886 101.45 47.5494 100.744C42.2182 97.5296 33.5158 92.1592 32.4182 90.7872C31.0854 89.1016 21.9518 72.716 21.5598 72.0104C21.4422 71.7752 21.4814 71.5008 21.6774 71.3048L27.8318 65.4248C27.9494 65.3072 28.1454 65.2288 28.3022 65.268C28.459 65.3072 28.6158 65.3856 28.7334 65.5424L39.6702 83.5352L53.547 92.708C54.5662 92.6688 55.5462 92.6296 56.5262 92.6688C57.7806 92.6688 59.035 92.708 60.211 92.7864C61.6222 92.8256 63.1118 92.904 64.5622 92.8648C68.1686 92.8256 71.6574 94.1584 74.323 96.628C76.3614 98.4704 79.1838 100.43 81.3006 99.372C85.5342 97.2944 89.8854 91.8848 91.1006 90.1208C91.179 90.0032 91.3358 89.8856 91.4926 89.8856C91.6494 89.8464 91.8062 89.8856 91.9238 89.964L99.215 94.9816C99.4894 95.1776 99.5286 95.5304 99.3718 95.8048C99.3326 95.8832 99.2542 96.0008 99.1366 96.1968C94.0798 104.115 89.2582 107.604 86.1222 109.133C84.1622 110.113 82.0062 110.622 79.811 110.622C78.3214 110.622 76.4398 109.799 73.9702 108.114C73.0294 107.486 72.2454 106.82 71.4614 106.232L71.4222 120.854C71.4222 121.089 71.187 121.363 70.8734 121.363ZM49.1174 120.187H70.2854L70.3246 104.899C70.3246 104.586 70.599 104.311 70.9126 104.311C71.0694 104.311 71.187 104.35 71.3046 104.468C71.3046 104.468 71.6574 104.782 72.2454 105.291C72.951 105.879 73.7742 106.506 74.6758 107.094C77.459 108.976 79.027 109.407 79.8502 109.407C81.8494 109.407 83.8486 108.937 85.6518 108.035C88.631 106.585 93.2566 103.214 98.1566 95.6088L91.8454 91.2576C90.199 93.492 86.083 98.3528 81.9278 100.391C79.7718 101.45 76.9886 100.47 73.6566 97.4512C71.187 95.2168 68.0118 94.0016 64.6798 94.0016C63.1902 94.0408 61.7006 93.9624 60.2894 93.9232C59.0742 93.884 57.859 93.8448 56.6046 93.8056C55.5854 93.8056 54.527 93.8448 53.4686 93.884C53.351 93.884 53.2334 93.8448 53.1158 93.8056L38.9254 84.4368C38.847 84.3976 38.8078 84.3192 38.7686 84.2408L28.1846 66.7968L22.8926 71.8536C26.2246 77.812 32.4182 88.788 33.4374 90.0816C34.143 90.944 39.9054 94.7464 48.4902 99.9208C48.647 100.038 48.7646 100.195 48.7646 100.391C48.8038 101.175 48.8822 101.998 48.9214 102.743C49.039 104.194 49.1566 105.683 49.1566 107.173L49.1174 120.187Z" fill="#093F68"/>
<path d="M57.0752 91.2969H61.936V95.0209C61.936 95.6481 61.4264 96.1577 60.7992 96.1577H58.212C57.5848 96.1577 57.0752 95.6481 57.0752 95.0209V91.2969Z" fill="#FFC9B0"/>
<path d="M59.8583 96.7843H59.1135C57.6239 96.7843 56.4087 95.5691 56.4087 94.0795V91.2571C56.4087 90.9043 56.6831 90.6299 57.0359 90.6299H61.9359C62.2887 90.6299 62.5631 90.9043 62.5631 91.2571V94.0795C62.5631 95.5691 61.3479 96.7843 59.8583 96.7843ZM57.6631 91.8843V94.0795C57.6631 94.8635 58.3295 95.5299 59.1135 95.5299H59.8583C60.6423 95.5299 61.3087 94.8635 61.3087 94.0795V91.8843H57.6631Z" fill="#093F68"/>
<path d="M42.3357 78.5957C42.3357 78.5957 37.9844 60.2893 39.5916 57.3493C41.1989 54.4093 43.7468 55.5461 43.7468 55.5461C43.7468 55.5461 47.1964 45.6677 54.762 45.2365C62.3277 44.8053 66.0909 49.9797 70.3244 49.3917C74.5581 48.8037 76.5965 47.2749 76.5965 47.2749C78.0469 50.0581 77.6941 53.4293 75.6949 55.8597C75.6949 55.8597 78.8309 53.9389 79.2229 58.3685C79.6149 62.7981 76.8709 78.1645 76.8709 78.1645L73.8525 77.6549L42.3357 78.5957Z" fill="#725858"/>
<path d="M42.3359 79.223C42.0615 79.223 41.7871 79.027 41.7479 78.7526C41.2775 76.8318 37.3967 60.0934 39.0823 57.075C40.3367 54.8014 42.1791 54.5662 43.3943 54.8014C44.2567 52.6454 47.8239 45.0014 54.7231 44.6486C59.0743 44.4134 62.2495 45.9814 64.7975 47.2358C66.7967 48.2158 68.4823 49.039 70.2071 48.8038C74.2447 48.2158 76.1655 46.8046 76.1655 46.8046C76.3223 46.687 76.4791 46.6478 76.6751 46.687C76.8319 46.7262 76.9887 46.8438 77.1063 47.0006C77.1455 47.0398 79.2623 50.8422 77.1063 54.8798C77.4591 54.8798 77.8511 54.9582 78.1647 55.115C79.1055 55.5854 79.6543 56.683 79.8111 58.3686C80.2031 62.8374 77.5767 77.6942 77.4983 78.3214C77.4591 78.6742 77.1063 78.8702 76.7927 78.831L73.8135 78.3214L42.3359 79.223ZM42.6103 55.9382C41.9047 55.9382 40.9247 56.2518 40.1407 57.663C39.0823 59.5838 41.1599 70.9518 42.8063 77.9686L73.8135 76.9886C73.8527 76.9886 73.8919 76.9886 73.9311 76.9886L76.3615 77.4198C76.8711 74.519 78.9095 62.2102 78.5567 58.4078C78.4391 57.1926 78.1255 56.4086 77.5767 56.1342C77.0279 55.8598 76.2047 56.1734 75.9695 56.3302C75.6559 56.487 75.3031 56.3694 75.1463 56.0558C75.0287 55.8598 75.0679 55.5854 75.1855 55.3894C76.9103 53.351 77.3415 50.5286 76.3223 48.0982C74.4799 49.0782 72.4807 49.7054 70.4031 49.9406C68.3255 50.2542 66.4439 49.3134 64.2879 48.255C61.7399 47.0006 58.8391 45.5894 54.8015 45.8246C47.7455 46.2166 44.3743 55.6246 44.3351 55.703C44.2959 55.8598 44.1391 56.0166 43.9823 56.0558C43.8255 56.1342 43.6295 56.1342 43.4727 56.0558C43.2375 55.9774 42.9239 55.9382 42.6103 55.9382Z" fill="#093F68"/>
<path d="M45.5503 82.6721C48.1699 82.6721 50.2935 80.8469 50.2935 78.5954C50.2935 76.3438 48.1699 74.5186 45.5503 74.5186C42.9307 74.5186 40.8071 76.3438 40.8071 78.5954C40.8071 80.8469 42.9307 82.6721 45.5503 82.6721Z" fill="#FFC9B0"/>
<path d="M45.5501 83.2996C42.5709 83.2996 40.1797 81.1828 40.1797 78.5956C40.1797 76.0084 42.5709 73.8916 45.5501 73.8916C48.5293 73.8916 50.9205 76.0084 50.9205 78.5956C50.9205 81.1828 48.4901 83.2996 45.5501 83.2996ZM45.5501 75.1068C43.2765 75.1068 41.4341 76.6748 41.4341 78.5956C41.4341 80.5164 43.2765 82.0844 45.5501 82.0844C47.8237 82.0844 49.6661 80.5164 49.6661 78.5956C49.6661 76.6748 47.8237 75.1068 45.5501 75.1068Z" fill="#093F68"/>
<path d="M73.2251 82.6721C75.8447 82.6721 77.9683 80.8469 77.9683 78.5954C77.9683 76.3438 75.8447 74.5186 73.2251 74.5186C70.6055 74.5186 68.4819 76.3438 68.4819 78.5954C68.4819 80.8469 70.6055 82.6721 73.2251 82.6721Z" fill="#FFC9B0"/>
<path d="M73.2254 83.2996C70.2462 83.2996 67.855 81.1828 67.855 78.5956C67.855 76.0084 70.2462 73.8916 73.2254 73.8916C76.2046 73.8916 78.5958 76.0084 78.5958 78.5956C78.5958 81.1828 76.1654 83.2996 73.2254 83.2996ZM73.2254 75.1068C70.9518 75.1068 69.1094 76.6748 69.1094 78.5956C69.1094 80.5164 70.9518 82.0844 73.2254 82.0844C75.499 82.0844 77.3414 80.5164 77.3414 78.5956C77.3414 76.6748 75.499 75.1068 73.2254 75.1068Z" fill="#093F68"/>
<path d="M59.5053 91.9236C51.5869 91.9236 45.1973 85.534 45.1973 77.6156V64.366C45.1973 64.366 46.9613 68.09 52.2141 63.0332C67.4629 70.7556 73.8133 64.366 73.8133 64.366V77.6156C73.8133 85.534 67.4237 91.9236 59.5053 91.9236Z" fill="#FFC9B0"/>
<path d="M59.5055 92.5514C51.2735 92.5514 44.5703 85.8482 44.5703 77.6162V64.3666C44.5703 64.0922 44.7663 63.8178 45.0407 63.7786C45.3151 63.7002 45.6287 63.857 45.7463 64.1314C46.0207 64.641 46.5303 64.9938 47.0791 65.0722C47.9023 65.229 49.3919 64.9154 51.7831 62.6418C51.9791 62.4458 52.2535 62.4066 52.4887 62.5242C60.1327 66.405 65.4247 66.5618 68.5215 66.0522C71.8143 65.4642 73.3823 63.9746 73.3823 63.9746C73.6175 63.7394 74.0095 63.7394 74.2447 63.9746C74.3623 64.0922 74.4407 64.249 74.4407 64.4058V77.6162C74.4407 85.8482 67.7375 92.5514 59.5055 92.5514ZM45.8247 65.8954V77.6554C45.8247 85.221 51.9399 91.3362 59.5055 91.3362C67.0711 91.3362 73.1863 85.1818 73.1863 77.6162V65.621C70.7951 67.1498 64.2487 69.737 52.2927 63.8178C50.2151 65.7386 48.3727 66.5618 46.8047 66.2874C46.4519 66.1698 46.1383 66.0522 45.8247 65.8954Z" fill="#093F68"/>
<path d="M52.8806 76.8707C53.6167 76.8707 54.2135 76.274 54.2135 75.5379C54.2135 74.8018 53.6167 74.2051 52.8806 74.2051C52.1446 74.2051 51.5479 74.8018 51.5479 75.5379C51.5479 76.274 52.1446 76.8707 52.8806 76.8707Z" fill="#093F68"/>
<path d="M66.5613 76.8707C67.2974 76.8707 67.8941 76.274 67.8941 75.5379C67.8941 74.8018 67.2974 74.2051 66.5613 74.2051C65.8252 74.2051 65.2285 74.8018 65.2285 75.5379C65.2285 76.274 65.8252 76.8707 66.5613 76.8707Z" fill="#093F68"/>
<path d="M64.7188 81.9277C64.7972 84.8285 62.5236 87.2197 59.6228 87.2981C56.722 87.3765 54.3308 85.1029 54.2524 82.2021C54.2524 82.1237 54.2524 82.0061 54.2524 81.9277H64.7188Z" fill="white"/>
<path d="M59.5054 87.7688C56.291 87.7688 53.6646 85.1424 53.6646 81.928C53.6646 81.5752 53.939 81.3008 54.2918 81.3008H64.719C65.0718 81.3008 65.3462 81.5752 65.3462 81.928C65.3462 85.1424 62.7198 87.7688 59.5054 87.7688ZM54.9582 82.5552C55.311 85.064 57.6238 86.828 60.1326 86.5144C62.171 86.24 63.8174 84.6328 64.0918 82.5552H54.9582Z" fill="#093F68"/>
<path d="M59.4268 80.595C58.9956 80.595 58.5252 80.5558 58.094 80.4774C57.7412 80.399 57.5452 80.0854 57.6236 79.7326C57.702 79.419 57.9764 79.223 58.29 79.2622C58.878 79.3406 59.4268 79.3798 60.0148 79.3014C59.7796 78.2822 59.4268 77.3414 58.9172 76.4398C58.7604 76.1262 58.8388 75.7734 59.1524 75.5774C59.466 75.4206 59.8188 75.499 60.0148 75.8126C60.0148 75.8126 60.0148 75.8518 60.054 75.8518C60.642 76.9886 61.5828 79.027 61.1908 79.9286C61.0732 80.203 60.838 80.399 60.5636 80.4382C60.1716 80.5558 59.8188 80.595 59.4268 80.595Z" fill="#093F68"/>
<path d="M49.3133 72.7943C48.6469 72.7943 48.0981 72.2455 48.0981 71.5399C48.0981 70.9519 48.5293 70.4423 49.0781 70.3247L55.2717 69.1487C55.9381 68.9919 56.6045 69.3839 56.7613 70.0503C56.9181 70.7167 56.5261 71.3831 55.8597 71.5399C55.8205 71.5399 55.7813 71.5399 55.7421 71.5791L49.5485 72.7551C49.4701 72.7943 49.3917 72.7943 49.3133 72.7943Z" fill="#093F68"/>
<path d="M70.8732 72.7939C70.7948 72.7939 70.7164 72.7939 70.638 72.7547L64.4444 71.5787C63.778 71.5003 63.3076 70.8731 63.386 70.1675C63.4644 69.5011 64.0916 69.0307 64.7972 69.1091C64.8364 69.1091 64.8756 69.1091 64.9148 69.1483L71.1084 70.3243C71.7748 70.4419 72.206 71.1083 72.0884 71.7747C71.9316 72.4019 71.4612 72.7939 70.8732 72.7939Z" fill="#093F68"/>
<path d="M55.8991 120.775H48.7646V169.344H55.8991V120.775Z" fill="#093F68"/>
<path d="M53.7036 120.775H65.934V127.126C65.934 128.459 64.8364 129.517 63.5428 129.517H56.134C54.8012 129.517 53.7428 128.419 53.7428 127.126L53.7036 120.775Z" fill="#093F68"/>
<path d="M61.5831 130.143H58.0159C55.2719 130.143 53.0767 127.909 53.0767 125.204V120.775C53.0767 120.422 53.3511 120.147 53.7039 120.147H65.9343C66.2871 120.147 66.5615 120.422 66.5615 120.775V125.204C66.5615 127.948 64.3271 130.143 61.5831 130.143ZM54.3311 121.363V125.204C54.3311 127.243 55.9775 128.928 58.0551 128.928H61.6223C63.6607 128.928 65.3463 127.282 65.3463 125.204V121.363H54.3311Z" fill="#093F68"/>
<path d="M64.3271 150.724L61.2695 155.232L71.6575 162.288C71.6575 162.288 73.4607 158.446 70.0111 154.604L64.3271 150.724Z" fill="#AD7972"/>
<path d="M71.3438 162.837L60.9166 155.781C60.6422 155.585 60.5638 155.193 60.7598 154.918L63.8174 150.41C64.0134 150.136 64.4054 150.057 64.6798 150.253L70.403 154.134C70.4422 154.173 70.4814 154.213 70.5206 154.213C74.2054 158.329 72.3238 162.405 72.2454 162.601C72.0886 162.915 71.7358 163.033 71.4222 162.915C71.4222 162.876 71.383 162.876 71.3438 162.837ZM62.1318 155.075L71.3438 161.347C71.6574 160.171 71.8926 157.662 69.619 155.075L64.4838 151.586L62.1318 155.075Z" fill="#093F68"/>
<path d="M70.8734 120.775C70.8734 120.775 78.6742 135.123 79.223 136.024C79.7718 136.926 69.6582 155.115 69.6582 155.115L64.6798 150.215L70.2854 137.161L63.543 129.556L64.0918 121.403L70.8734 120.775Z" fill="#093F68"/>
<path d="M55.1932 166.757L57.6628 171.618L46.4516 177.302C46.4516 177.302 45.158 173.264 49.078 169.893L55.1932 166.757Z" fill="#AD7972"/>
<path d="M57.9374 172.166L46.7262 177.85C46.4126 178.007 46.0598 177.889 45.903 177.576C45.903 177.537 45.8638 177.497 45.8638 177.458C45.7854 177.262 44.4918 172.989 48.647 169.383C48.6862 169.344 48.7254 169.305 48.7646 169.305L54.919 166.208C55.2326 166.051 55.5854 166.169 55.7422 166.482L58.2118 171.343C58.3686 171.657 58.251 172.009 57.9374 172.166ZM46.883 176.361L56.8398 171.343L54.919 167.58L49.3918 170.363C46.8438 172.637 46.7262 175.145 46.883 176.361Z" fill="#093F68"/>
<path d="M70.9124 105.487C70.5596 105.487 70.2852 105.213 70.2852 104.86V99.9602C70.2852 99.6074 70.5596 99.333 70.9124 99.333C71.2652 99.333 71.5396 99.6074 71.5396 99.9602V104.86C71.5004 105.213 71.226 105.487 70.9124 105.487Z" fill="#093F68"/>
<path d="M120.07 62.4842L90.2388 58.3682L91.258 63.5034L92.1204 67.8546L93.022 72.4018L93.8844 76.7922L94.786 81.3394L95.6484 85.6906L96.55 90.2378L97.4124 94.589L98.0396 97.725C98.118 98.117 98.314 98.509 98.6276 98.8226C99.4508 99.6066 100.705 99.5674 101.489 98.7442C101.646 98.5874 101.764 98.4306 101.842 98.2346L104.272 93.413L106.781 88.4738L109.447 83.3386L111.956 78.3994L114.582 73.225L117.091 68.2858L119.717 63.1114L120.07 62.4842Z" fill="#5677FC"/>
<path d="M100.039 100.038C99.3723 100.038 98.7059 99.803 98.2355 99.3326C97.8435 98.9406 97.5691 98.4702 97.4907 97.9606L89.6899 58.4862C89.6507 58.2902 89.7291 58.0942 89.8467 57.9766C89.9643 57.8198 90.1603 57.7806 90.3563 57.8198L120.187 61.9358C120.383 61.975 120.54 62.0926 120.619 62.2494C120.697 62.4062 120.697 62.6022 120.619 62.7982L120.266 63.543L109.995 83.7702L107.33 88.9054L102.351 98.6662C102.234 98.9014 102.077 99.1366 101.881 99.2934C101.411 99.803 100.744 100.077 100.078 100.077L100.039 100.038ZM91.0227 59.0742L98.6275 97.7254C98.7059 97.9998 98.8235 98.2742 99.0587 98.4702C99.6467 99.019 100.548 98.9798 101.097 98.431C101.215 98.3526 101.293 98.235 101.332 98.0782L106.311 88.2782L108.976 83.143L119.247 62.955L91.0227 59.0742Z" fill="#093F68"/>
<path d="M106.82 88.5918L96.5889 90.3166L97.4513 94.6678L104.311 93.531L106.82 88.5918Z" fill="white"/>
<path d="M97.1772 94.9026C97.138 94.8634 97.138 94.8242 97.138 94.7458L96.2756 90.3946C96.2364 90.1986 96.354 90.0418 96.55 90.0026C96.55 90.0026 96.55 90.0026 96.5892 90.0026L106.82 88.2778C106.938 88.2386 107.095 88.317 107.173 88.4346C107.252 88.5522 107.252 88.6698 107.212 88.7874L104.704 93.7266C104.664 93.8442 104.547 93.8834 104.429 93.9226L97.5692 95.0986C97.3732 95.0594 97.2556 94.981 97.1772 94.9026ZM96.9812 90.5906L97.726 94.2754L104.076 93.1778L106.193 89.0226L96.9812 90.5906Z" fill="#093F68"/>
<path d="M111.956 78.4785L94.8252 81.3793L95.6876 85.7697L109.447 83.4177L111.956 78.4785Z" fill="white"/>
<path d="M95.413 85.9656C95.3738 85.9264 95.3738 85.8872 95.3738 85.8088L94.5114 81.4184C94.4722 81.34 94.5114 81.2224 94.5506 81.144C94.5898 81.0656 94.6682 81.0264 94.7858 80.9872L111.916 78.0864C112.034 78.0472 112.191 78.1256 112.269 78.2432C112.347 78.3608 112.347 78.4784 112.308 78.596L109.839 83.5352C109.799 83.6528 109.682 83.692 109.564 83.7312L95.805 86.044C95.609 86.1224 95.4914 86.044 95.413 85.9656ZM95.2562 81.6928L96.001 85.3776L109.251 83.1432L111.367 78.988L95.2562 81.6928Z" fill="#093F68"/>
<path d="M117.091 68.3643L93.061 72.4411L93.9234 76.8315L114.582 73.3035L117.091 68.3643Z" fill="white"/>
<path d="M93.6493 77.0279C93.6101 76.9887 93.6101 76.9495 93.6101 76.8711L92.7477 72.5199C92.7085 72.4415 92.7477 72.3239 92.7869 72.2455C92.8261 72.1671 92.9045 72.1279 93.0221 72.0887L117.052 68.0119C117.248 67.9727 117.404 68.1295 117.444 68.3255C117.444 68.4039 117.444 68.4431 117.444 68.5215L114.935 73.4607C114.896 73.5783 114.778 73.6175 114.66 73.6567L94.0021 77.1455C93.8453 77.1847 93.7277 77.1455 93.6493 77.0279ZM93.4533 72.7551L94.1981 76.4399L114.347 73.0295L116.464 68.8351L93.4533 72.7551Z" fill="#093F68"/>
<path d="M120.07 62.4846L107.565 60.7598L91.2969 63.543L92.1593 67.8942L119.717 63.1902L120.07 62.4846Z" fill="white"/>
<path d="M91.8461 68.0904C91.8069 68.0512 91.8069 68.012 91.8069 67.9336L90.9445 63.5824C90.9053 63.504 90.9445 63.3864 90.9837 63.308C91.0229 63.2296 91.1013 63.1904 91.2189 63.1512L107.487 60.4072C107.526 60.4072 107.565 60.4072 107.604 60.4072L120.109 62.132C120.305 62.1712 120.423 62.328 120.423 62.524C120.423 62.5632 120.423 62.6024 120.384 62.6416L120.031 63.3864C119.992 63.504 119.874 63.5432 119.756 63.5824L92.1989 68.2472C92.0813 68.2472 91.9245 68.1688 91.8461 68.0904ZM91.6893 63.8176L92.3949 67.5024L119.443 62.916L119.521 62.7984L107.526 61.152L91.6893 63.8176Z" fill="#093F68"/>
<path d="M126.798 36.0142L125.182 36.7227L126.867 40.5639L128.482 39.8555L126.798 36.0142Z" fill="#F56132"/>
<path d="M126.577 40.7676L126.538 40.6892L124.852 36.8476C124.774 36.6516 124.852 36.4948 125.009 36.3772L126.616 35.6716C126.773 35.5932 127.008 35.6716 127.047 35.8676L128.733 39.7092C128.772 39.7876 128.772 39.9052 128.733 39.9836C128.694 40.062 128.615 40.1404 128.537 40.1796L126.93 40.8852C126.851 40.9244 126.694 40.8852 126.577 40.7676ZM125.636 36.8868L127.047 40.1012L128.027 39.67L126.616 36.4556L125.636 36.8868Z" fill="#093F68"/>
<path d="M103.935 41.2572C104.347 38.7141 102.62 36.318 100.077 35.9052C97.5342 35.4925 95.1381 37.2195 94.7253 39.7626C94.3126 42.3056 96.0396 44.7018 98.5827 45.1145C101.126 45.5272 103.522 43.8002 103.935 41.2572Z" fill="#F56132"/>
<path d="M95.1778 43.3552C93.5706 41.0816 94.1194 37.9064 96.4322 36.3384C98.745 34.7704 101.881 35.28 103.449 37.5928C105.056 39.8664 104.507 43.0416 102.195 44.6096C100.039 46.0992 97.0986 45.7072 95.413 43.708C95.3346 43.5904 95.2562 43.4728 95.1778 43.3552ZM102.9 38.0632C102.822 37.9456 102.743 37.8672 102.665 37.7888C101.136 35.9856 98.4314 35.7504 96.6282 37.2792C94.825 38.808 94.5898 41.5128 96.1186 43.316C97.6474 45.1192 100.352 45.3544 102.155 43.8256C103.88 42.3752 104.194 39.8664 102.9 38.0632Z" fill="#093F68"/>
<path d="M101.842 56.8006C103.054 56.8006 104.037 55.8177 104.037 54.6054C104.037 53.393 103.054 52.4102 101.842 52.4102C100.629 52.4102 99.6465 53.393 99.6465 54.6054C99.6465 55.8177 100.629 56.8006 101.842 56.8006Z" fill="#FFBC0E"/>
<path d="M99.7252 56.0554C98.9804 54.9578 99.1764 53.5074 100.196 52.645C101.293 51.7434 102.9 51.9002 103.763 52.9978C104.664 54.0954 104.508 55.7026 103.41 56.565C102.312 57.4666 100.705 57.3098 99.8428 56.2122L99.7252 56.0554ZM100.666 53.1938C99.882 53.821 99.7644 54.997 100.392 55.781C101.019 56.565 102.195 56.6826 102.979 56.0554C103.763 55.4282 103.88 54.2522 103.253 53.4682C102.626 52.645 101.489 52.5274 100.666 53.1938Z" fill="#093F68"/>
<path d="M113.406 45.1586L111.172 46.9226L108.428 46.0602C108.192 45.9818 107.918 46.0994 107.84 46.3738C107.8 46.4914 107.8 46.609 107.84 46.6874L108.82 49.353L107.173 51.6658C107.016 51.8618 107.056 52.1754 107.291 52.3322C107.369 52.4106 107.487 52.4106 107.604 52.4106L110.466 52.3322L112.152 54.6058C112.308 54.8018 112.622 54.841 112.857 54.6842C112.936 54.6058 113.014 54.5274 113.014 54.449L113.798 51.705L116.503 50.8034C116.738 50.725 116.895 50.4506 116.816 50.1762C116.777 50.0586 116.699 49.9802 116.62 49.941L114.268 48.3338V45.5114C114.229 45.237 113.994 45.041 113.759 45.0802C113.602 45.0802 113.484 45.1194 113.406 45.1586Z" fill="#70CC40"/>
<path d="M106.82 52.4106L106.781 52.3322C106.624 52.0578 106.663 51.705 106.82 51.4306L108.388 49.2746L107.487 46.7658C107.33 46.3346 107.565 45.8642 107.996 45.7074C108.153 45.629 108.349 45.629 108.545 45.7074L111.093 46.5306L113.21 44.8842C113.563 44.6098 114.072 44.649 114.386 45.0018C114.386 45.0018 114.386 45.0018 114.386 45.041C114.503 45.1978 114.582 45.3546 114.582 45.5506V48.2162L116.777 49.7058C117.169 49.9802 117.247 50.4898 117.012 50.8818C116.895 51.0386 116.777 51.1562 116.581 51.1954L114.033 52.0186L113.288 54.5666C113.171 54.9978 112.7 55.2722 112.269 55.1154C112.112 55.0762 111.955 54.9586 111.838 54.8018L110.27 52.6458L107.604 52.7242C107.291 52.8026 107.016 52.6458 106.82 52.4106ZM113.641 45.433L111.407 47.197C111.328 47.2754 111.171 47.2754 111.093 47.2362L108.388 46.3738C108.31 46.3738 108.231 46.413 108.231 46.4522C108.231 46.4914 108.231 46.4914 108.231 46.5306L109.211 49.1962C109.251 49.3138 109.251 49.4314 109.172 49.5098L107.487 51.8226C107.447 51.8618 107.447 51.9402 107.487 51.9794C107.526 52.0186 107.565 52.0578 107.604 52.0578L110.466 51.9794C110.583 51.9794 110.701 52.0186 110.779 52.1362L112.465 54.4098C112.504 54.4882 112.583 54.4882 112.661 54.449C112.7 54.4098 112.7 54.4098 112.7 54.3706L113.484 51.6266C113.523 51.509 113.602 51.4306 113.719 51.3914L116.424 50.4898C116.503 50.4506 116.542 50.3722 116.503 50.333C116.503 50.2938 116.463 50.2546 116.463 50.2546L114.111 48.6474C114.033 48.569 113.955 48.4906 113.955 48.373V45.5506C113.955 45.5114 113.915 45.433 113.876 45.433C113.719 45.3938 113.68 45.3938 113.641 45.433Z" fill="#093F68"/>
<path d="M117.992 30.6545L115.209 31.3601L113.053 29.4785C112.857 29.2825 112.544 29.3217 112.387 29.5177C112.308 29.5961 112.269 29.7137 112.269 29.7921L112.073 32.6537L109.604 34.1041C109.368 34.2217 109.29 34.5353 109.447 34.7705C109.486 34.8489 109.564 34.9273 109.682 34.9665L112.348 36.0249L112.975 38.8081C113.014 39.0825 113.288 39.2393 113.563 39.2001C113.68 39.1609 113.759 39.1217 113.837 39.0433L115.68 36.8481L118.502 37.1225C118.776 37.1617 119.012 36.9657 119.012 36.6913C119.012 36.5737 118.972 36.4561 118.933 36.3777L117.444 33.9473L118.58 31.3209C118.698 31.0857 118.58 30.7721 118.306 30.6937C118.188 30.6153 118.071 30.6153 117.992 30.6545Z" fill="#FFBC0E"/>
<path d="M109.172 34.9664C108.898 34.5744 108.976 34.0648 109.368 33.7904L109.407 33.7512L111.72 32.4184L111.916 29.7528C111.955 29.2824 112.347 28.9296 112.818 28.9688C113.014 28.9688 113.171 29.0472 113.288 29.1648L115.287 30.968L117.875 30.3408C118.306 30.2232 118.776 30.4976 118.894 30.968C118.933 31.164 118.933 31.3208 118.855 31.4776L117.796 33.908L119.207 36.1816C119.443 36.5736 119.325 37.0832 118.972 37.3184C118.815 37.436 118.619 37.4752 118.463 37.436L115.797 37.1616L114.072 39.2C113.759 39.5528 113.249 39.592 112.896 39.3176C112.739 39.2 112.661 39.0432 112.622 38.8472L112.034 36.26L109.564 35.2408C109.368 35.2016 109.251 35.084 109.172 34.9664ZM118.188 31.0464C118.149 31.0072 118.11 30.968 118.031 31.0072L115.248 31.7128C115.131 31.752 115.013 31.7128 114.935 31.6344L112.779 29.7528C112.739 29.7136 112.622 29.7136 112.583 29.7528C112.543 29.792 112.543 29.792 112.543 29.8312L112.347 32.6536C112.347 32.7712 112.269 32.8888 112.151 32.928L109.682 34.3392C109.643 34.3784 109.603 34.4176 109.603 34.4568C109.603 34.496 109.643 34.5744 109.682 34.5744L112.347 35.672C112.465 35.7112 112.543 35.7896 112.543 35.9072L113.171 38.6904C113.21 38.7688 113.288 38.808 113.367 38.7688C113.406 38.7688 113.406 38.7688 113.406 38.7296L115.248 36.5344C115.327 36.456 115.444 36.4168 115.562 36.4168L118.384 36.6912C118.423 36.6912 118.502 36.652 118.502 36.6128C118.541 36.5736 118.541 36.4952 118.502 36.456L117.012 34.0256C116.973 33.908 116.934 33.7904 116.973 33.712L118.11 31.0856C118.227 31.1248 118.227 31.0856 118.188 31.0464Z" fill="#093F68"/>
<path d="M85.221 47.5885C85.1034 47.4317 84.9858 47.2357 84.9466 47.0397C84.633 46.2165 84.7506 45.2757 85.2602 44.5309C86.0834 43.4725 87.4554 43.1589 88.6314 43.3941C88.4354 42.5317 87.965 41.7085 87.3378 41.0813C87.2202 40.9637 87.1026 40.8853 86.9458 40.7677C86.9066 40.8461 86.8674 40.9245 86.8282 41.0029C86.2794 41.9437 85.025 42.7277 83.8882 42.2573C83.5746 42.1397 83.3002 41.9437 83.1434 41.6301C82.9866 41.3557 82.9866 41.0029 83.1042 40.6893C83.3002 40.2189 83.6922 39.8661 84.2018 39.6701C84.9466 39.3957 85.809 39.4349 86.5538 39.7093C86.6322 39.1213 86.6322 38.4941 86.5146 37.9061C86.005 34.8485 84.0842 32.1437 81.3794 30.6541C81.2226 30.5365 81.2226 30.3013 81.3402 30.1837C81.4186 30.1053 81.5754 30.0269 81.693 30.0661C84.633 31.6733 86.6322 34.5349 87.2202 37.8277C87.3378 38.5725 87.3378 39.3173 87.181 40.0621C87.4162 40.2189 87.6122 40.3757 87.8082 40.5325C88.6314 41.3557 89.1802 42.4141 89.4154 43.5509L89.4546 43.5901C90.6306 44.0605 91.6498 45.0013 92.669 46.4909C93.845 48.2549 95.217 50.9597 94.9426 53.9781C94.9426 54.1741 94.7858 54.3309 94.5898 54.3309C94.433 54.3309 94.2762 54.2133 94.237 54.0565C94.237 54.0173 94.237 53.9781 94.237 53.8997C94.5114 51.0773 93.2178 48.5293 92.081 46.8437C91.2186 45.5893 90.3954 44.8053 89.533 44.3349C89.6506 45.1973 89.533 46.0597 89.1802 46.8437C88.749 47.7453 87.6514 48.5685 86.4754 48.3333C85.9266 48.3333 85.4954 48.0197 85.221 47.5885ZM88.749 44.1389C87.7298 43.8645 86.4362 44.0605 85.7306 44.9621C85.3778 45.5109 85.2994 46.2165 85.5346 46.8045C85.6914 47.2749 86.0834 47.6277 86.5538 47.7453C87.377 47.9021 88.161 47.2749 88.5138 46.6085C88.9058 45.8637 88.9842 44.9621 88.749 44.1389ZM86.2794 40.4541C85.6914 40.1797 84.9858 40.1405 84.3586 40.3757C84.045 40.4933 83.8098 40.7285 83.6922 41.0029C83.653 41.1205 83.653 41.2381 83.6922 41.3557C83.7706 41.5125 83.9274 41.5909 84.0842 41.6301C84.8682 41.9437 85.7698 41.3557 86.1618 40.6501C86.2402 40.5717 86.2794 40.5325 86.2794 40.4541Z" fill="#093F68"/>
<path d="M98.3136 24.9312C100.313 24.5 102.351 25.2057 103.684 26.7737L102.626 29.3217C102.626 29.3217 100.195 26.9696 97.7256 27.7144L98.3136 24.9312Z" fill="#70CC40"/>
<path d="M97.4514 27.871C97.4122 27.7926 97.373 27.7142 97.4122 27.5966L98.0002 24.8134C98.0394 24.6958 98.1178 24.5782 98.2354 24.539C100.352 24.0686 102.547 24.8134 103.959 26.499C104.037 26.6166 104.076 26.7342 103.998 26.8518L102.939 29.3998C102.861 29.5958 102.665 29.6742 102.469 29.5958C102.43 29.5958 102.391 29.5566 102.391 29.5174C102.391 29.4782 100.078 27.283 97.8434 27.9494C97.7258 27.9886 97.6082 27.9494 97.5298 27.871H97.4514ZM98.6274 25.2054L98.1962 27.2046C100.039 26.9302 101.763 28.1062 102.508 28.6942L103.292 26.7734C102.116 25.519 100.352 24.931 98.6274 25.2054Z" fill="#093F68"/>
<path d="M118.149 59.27C118.11 59.1916 118.071 59.1132 118.11 58.9956C118.463 56.9572 119.325 55.0364 120.58 53.39C121.52 52.1356 122.775 51.1164 124.186 50.4892C124.931 48.8036 126.146 47.3924 127.714 46.4124C129.556 45.3148 131.595 44.6092 133.712 44.4132C133.908 44.3348 134.104 44.4524 134.182 44.6484C134.26 44.8444 134.143 45.0404 133.986 45.0796C133.947 45.0796 133.868 45.1188 133.829 45.1188C131.83 45.3148 129.87 45.9812 128.106 47.0004C126.852 47.7844 125.793 48.882 125.088 50.2148C126.93 49.7444 128.851 50.254 130.066 51.4692C130.772 52.1356 131.124 53.1156 131.007 54.0564C130.889 54.8796 130.458 55.5852 129.792 56.0948C128.812 56.9964 127.44 57.3492 126.185 56.9964C124.068 56.33 123.245 53.586 123.833 51.3908C122.775 52.018 121.834 52.8412 121.089 53.8212C119.913 55.3892 119.09 57.1924 118.737 59.1132C118.698 59.3092 118.502 59.4268 118.306 59.3876C118.267 59.3484 118.188 59.3092 118.149 59.27ZM124.735 51.038C124.656 51.234 124.617 51.43 124.539 51.5868C124.068 53.4292 124.696 55.7812 126.42 56.33C127.479 56.5652 128.576 56.2908 129.36 55.546C129.87 55.154 130.223 54.566 130.34 53.9388C130.419 53.194 130.105 52.41 129.556 51.9004C128.537 50.8028 126.695 50.4108 125.048 50.8812C124.97 50.9596 124.852 50.9988 124.735 51.038Z" fill="#093F68"/>
<path d="M92.5513 30.2233C92.5121 30.1449 92.4729 30.0665 92.5121 29.9489C92.5905 29.5569 92.5121 29.1257 92.3161 28.7729C92.2377 28.5769 92.3553 28.3809 92.5513 28.3025C92.6689 28.2633 92.8257 28.3025 92.9041 28.3809C93.2177 28.8905 93.2961 29.4785 93.1785 30.0273C93.1393 30.2233 92.9433 30.3409 92.7473 30.3017C92.6689 30.3017 92.5905 30.2625 92.5513 30.2233Z" fill="#DFEAEF"/>
<path d="M108.624 27.2046C108.545 27.1262 108.545 26.9694 108.584 26.891C108.976 25.9502 109.486 25.0486 110.113 24.2646C110.231 24.1078 110.388 23.9902 110.584 23.9902C110.819 23.9902 110.976 24.147 111.015 24.3822C111.054 24.5782 110.936 24.8134 110.74 24.8526C110.662 24.8526 110.584 24.8526 110.544 24.8526C109.996 25.5582 109.564 26.303 109.212 27.1262C109.133 27.3222 108.937 27.4006 108.741 27.3222C108.702 27.3222 108.624 27.283 108.624 27.2046Z" fill="#DFEAEF"/>
<path d="M118.071 45.9422C117.992 45.7462 118.071 45.5502 118.228 45.4718C118.345 45.3934 118.502 45.4326 118.62 45.511C118.855 45.7462 119.208 45.8638 119.521 45.8246C119.835 45.8246 120.148 45.6678 120.344 45.3934V45.3542C120.07 45.315 119.796 45.2758 119.56 45.1582C119.208 45.0014 118.933 44.727 118.816 44.3742C118.659 43.943 118.816 43.4726 119.168 43.1982C119.443 43.0414 119.756 43.0414 120.07 43.159C120.658 43.3942 121.089 43.943 121.168 44.5702C121.246 44.5702 121.324 44.531 121.403 44.4918C121.952 44.2566 122.461 43.943 122.932 43.551C123.049 43.3942 123.284 43.3942 123.441 43.551C123.598 43.6686 123.598 43.9038 123.48 44.0606C123.441 44.0998 123.402 44.139 123.363 44.139C122.853 44.531 122.265 44.8838 121.677 45.119C121.481 45.1582 121.324 45.2366 121.128 45.2758C121.089 45.4326 121.011 45.6286 120.893 45.7462C120.58 46.1382 120.109 46.4126 119.56 46.4518C119.012 46.5302 118.463 46.3342 118.071 45.9422ZM120.266 44.1782C120.148 44.0214 119.992 43.9038 119.835 43.8254C119.717 43.7862 119.639 43.7862 119.521 43.8254C119.443 43.9038 119.404 44.0606 119.443 44.139C119.521 44.2958 119.678 44.4526 119.835 44.531C120.031 44.6094 120.227 44.6878 120.462 44.6878C120.462 44.6094 120.423 44.5702 120.423 44.4918C120.384 44.3742 120.344 44.2566 120.266 44.1782Z" fill="#DFEAEF"/>
<path d="M122.108 31.9089C122.03 31.7913 122.03 31.6345 122.108 31.5169C122.5 30.9681 123.049 30.5761 123.676 30.3801C123.872 30.3409 124.029 30.4977 124.068 30.6937C124.068 30.8113 123.99 30.9681 123.872 31.0465C123.402 31.2033 122.971 31.4777 122.657 31.9089C122.539 32.0657 122.343 32.1049 122.187 31.9873C122.147 31.9873 122.108 31.9481 122.108 31.9089Z" fill="#DFEAEF"/>
<path d="M121.481 112.857C121.481 112.857 114.856 112.936 113.798 113.955C112.739 114.974 111.485 116.895 111.642 117.875C111.799 118.855 112.347 120.031 113.327 119.913C114.307 119.796 115.327 119.482 116.542 119.482C117.757 119.482 122.539 119.012 122.539 119.012L121.481 112.857Z" fill="#FFC9B0"/>
<path d="M110.936 117.992C110.662 116.503 112.347 114.268 113.288 113.367C114.464 112.269 119.834 112.112 121.442 112.112C121.794 112.112 122.108 112.348 122.186 112.74L123.245 118.894C123.284 119.09 123.245 119.325 123.088 119.482C122.97 119.639 122.774 119.756 122.578 119.756C122.382 119.756 117.757 120.227 116.502 120.227C115.875 120.227 115.248 120.305 114.621 120.462C114.19 120.54 113.798 120.619 113.366 120.658C113.131 120.697 112.896 120.658 112.661 120.58C111.838 120.305 111.171 119.364 110.936 117.992ZM120.854 113.602C117.953 113.68 114.778 114.033 114.307 114.464C113.21 115.444 112.308 117.169 112.386 117.718C112.504 118.463 112.896 119.208 113.288 119.168C113.641 119.129 113.994 119.051 114.386 118.972C115.091 118.816 115.797 118.737 116.542 118.698C117.404 118.698 120.266 118.463 121.677 118.306L120.854 113.602Z" fill="#093F68"/>
<path d="M153.468 126.42C148.921 127.126 144.295 125.597 141.081 122.304L143.825 112.465L156.8 114.464C156.839 114.464 161.269 125.244 153.468 126.42Z" fill="#093F68"/>
<path d="M159.779 163.935L165.659 156.526C153.821 147.863 146.647 141.199 145.667 138.181C144.883 135.75 152.488 125.558 155.428 115.288L139.983 113.994C138.493 119.169 135.553 136.887 137.749 143.708C139.905 150.176 154.722 160.015 159.779 163.935Z" fill="#093F68"/>
<path d="M159.348 164.523C158.486 163.856 157.31 162.994 155.938 161.975C149.156 156.996 138.925 149.509 137.122 143.943C134.77 136.73 138.023 118.384 139.317 113.798C139.435 113.445 139.748 113.249 140.101 113.249L155.546 114.543C155.781 114.543 155.977 114.66 156.095 114.856C156.212 115.052 156.251 115.248 156.212 115.483C154.644 120.893 151.861 126.224 149.587 130.536C147.902 133.751 146.138 137.083 146.451 137.945C147.392 140.885 154.801 147.588 166.208 155.938C166.365 156.055 166.483 156.251 166.522 156.447C166.561 156.643 166.483 156.839 166.365 156.996L160.485 164.405C160.328 164.601 160.132 164.679 159.897 164.679C159.623 164.679 159.466 164.601 159.348 164.523ZM144.962 138.376C144.491 136.965 145.707 134.613 148.215 129.831C150.332 125.832 152.88 120.932 154.448 115.954L140.532 114.778C139.082 120.423 136.416 137.122 138.455 143.472C140.101 148.568 150.528 156.212 156.761 160.759C157.859 161.543 158.839 162.288 159.623 162.876L164.562 156.643C157.623 151.508 146.373 142.727 144.962 138.376Z" fill="#093F68"/>
<path d="M144.374 167.502L161.818 117.404L153.821 112.112L135.083 165.464L144.374 167.502Z" fill="#093F68"/>
<path d="M144.217 168.208L134.927 166.208C134.731 166.169 134.535 166.012 134.456 165.856C134.339 165.66 134.339 165.464 134.417 165.268L153.155 111.916C153.233 111.72 153.39 111.524 153.625 111.446C153.821 111.368 154.095 111.407 154.252 111.524L162.288 116.816C162.563 117.012 162.68 117.365 162.602 117.679L145.04 167.737C144.923 168.051 144.648 168.247 144.335 168.247C144.295 168.247 144.256 168.247 144.217 168.208ZM154.213 113.249L136.063 164.915L143.903 166.64L160.955 117.679L154.213 113.249Z" fill="#093F68"/>
<path d="M139.042 92.238C141.081 88.5924 141.943 87.0244 145.354 87.0244H154.722C158.642 87.0244 161.857 90.1996 161.857 94.1588V117.404H138.258V109.643C133.868 114.896 128.066 119.6 120.893 120.619L119.56 111.211C128.772 109.878 135.632 98.3924 139.042 92.238Z" fill="#F56132"/>
<path d="M120.383 121.206C120.226 121.089 120.109 120.932 120.109 120.736L118.776 111.328C118.737 111.132 118.815 110.936 118.933 110.779C119.05 110.622 119.207 110.505 119.403 110.505C128.889 109.133 136.063 96.1576 138.415 91.924L138.454 91.8064C140.493 88.1608 141.551 86.3184 145.353 86.3184H154.722C159.073 86.3184 162.601 89.8464 162.601 94.1976V117.443C162.601 117.835 162.288 118.188 161.857 118.188H138.258C137.866 118.188 137.513 117.874 137.513 117.443V111.642C132.417 117.247 126.851 120.54 120.971 121.363H120.853C120.697 121.363 120.54 121.285 120.383 121.206ZM138.454 108.937C138.729 109.054 138.925 109.329 138.925 109.642V116.659H161.112V94.1584C161.112 90.6304 158.25 87.7688 154.722 87.7688H145.353C142.413 87.7688 141.747 88.9448 139.748 92.512L139.709 92.5904C137.317 96.9024 130.222 109.838 120.344 111.798L121.481 119.756C127.204 118.737 132.653 115.17 137.67 109.172C137.827 109.015 138.023 108.898 138.258 108.898C138.297 108.898 138.376 108.937 138.454 108.937Z" fill="#093F68"/>
<path d="M138.258 111.368C138.65 111.368 139.003 111.054 139.003 110.623V99.1766C138.964 98.7846 138.611 98.471 138.219 98.5102C137.866 98.5494 137.553 98.8238 137.553 99.1766V110.623C137.514 111.054 137.866 111.368 138.258 111.368Z" fill="#093F68"/>
<path d="M152.488 45.08C151.037 44.884 149.587 44.8056 148.137 44.8448C143.864 44.9624 138.885 47.0792 136.455 50.8424C135.906 51.7832 135.436 52.7632 135.083 53.7432C134.377 55.6248 134.573 56.0952 135.201 57.7416C135.867 59.4664 135.593 61.544 135.632 63.3472C135.671 65.8168 135.749 68.2472 135.789 70.7168C135.906 75.5384 135.985 80.36 136.102 85.1816C141.982 86.0832 147.901 86.0832 153.86 86.044C159.505 86.0048 165.189 85.9264 170.833 85.8088C171.461 85.8088 172.166 85.7304 172.48 85.1816C172.597 84.9072 172.637 84.6328 172.597 84.3192L172.401 72.1672C172.362 69.384 172.323 66.5616 172.009 63.7784C171.853 62.0928 171.5 60.4072 170.912 58.8C170.245 56.9968 169.148 55.3504 168.089 53.704C167.345 52.4888 166.482 51.352 165.463 50.3328C164.522 49.4704 163.425 48.7648 162.288 48.216C159.23 46.6088 155.898 45.5504 152.488 45.08Z" fill="#725858"/>
<path d="M150.92 86.6714C145.706 86.6714 140.846 86.5146 136.024 85.7698L135.554 85.6914V85.1818C135.436 80.3602 135.358 75.5386 135.24 70.717L135.083 63.3474C135.083 62.877 135.083 62.4066 135.083 61.9362C135.122 60.5642 135.162 59.153 134.691 57.9378C134.025 56.213 133.79 55.5858 134.574 53.5082C134.926 52.4498 135.397 51.4306 135.985 50.4898C138.65 46.3346 143.982 44.3746 148.137 44.2178C149.626 44.1786 151.116 44.257 152.606 44.453C156.094 44.9234 159.466 46.021 162.602 47.6282C163.817 48.2162 164.914 48.961 165.934 49.8626C166.992 50.921 167.894 52.097 168.638 53.3514C169.697 54.9978 170.794 56.6442 171.539 58.565C172.127 60.2114 172.48 61.9362 172.637 63.7002C172.95 66.5226 172.99 69.3842 173.029 72.1674L173.225 84.3194C173.264 84.7114 173.186 85.1034 173.029 85.4562C172.558 86.3578 171.382 86.397 170.873 86.397C165.267 86.5146 159.544 86.593 153.899 86.6322L150.92 86.6714ZM136.651 84.7114C142.139 85.4954 147.666 85.5346 153.821 85.4954C159.466 85.4562 165.189 85.3778 170.794 85.2602C171.03 85.2602 171.774 85.2602 171.931 84.9466C172.01 84.7506 172.01 84.5546 172.01 84.3978L171.814 72.2458C171.774 69.5018 171.735 66.6794 171.422 63.8962C171.265 62.2498 170.912 60.6034 170.402 59.0354C169.736 57.2714 168.678 55.625 167.658 54.057C166.953 52.881 166.09 51.7834 165.11 50.8034C164.17 49.9802 163.15 49.3138 162.053 48.765C159.074 47.197 155.82 46.1386 152.449 45.7074C151.038 45.5114 149.587 45.433 148.176 45.4722C144.334 45.5898 139.395 47.4322 137.004 51.1954C136.494 52.097 136.024 53.0378 135.71 54.0178C135.083 55.6642 135.201 56.017 135.828 57.6242C136.377 59.0354 136.338 60.5642 136.298 62.0538C136.298 62.5242 136.298 62.9946 136.298 63.4258L136.455 70.7954C136.494 75.421 136.573 80.0466 136.651 84.7114Z" fill="#093F68"/>
<path d="M150.489 90.9438H147.666C147.039 90.9438 146.49 90.4342 146.49 89.807V85.8086H151.625V89.7678C151.625 90.395 151.116 90.9438 150.489 90.9438Z" fill="#FFC9B0"/>
<path d="M145.785 88.7493V85.8093C145.785 85.4173 146.098 85.0645 146.529 85.0645H151.665C152.057 85.0645 152.409 85.4173 152.409 85.8093V88.7493C152.409 90.3565 151.116 91.6501 149.509 91.6501H148.725C147.078 91.6501 145.785 90.3565 145.785 88.7493ZM147.235 86.5541V88.7493C147.235 89.5333 147.862 90.1997 148.685 90.1997H149.469C150.253 90.1997 150.92 89.5725 150.92 88.7493V86.5541H147.235Z" fill="#093F68"/>
<path d="M135.789 77.3024C137.911 77.3024 139.63 75.3894 139.63 73.0296C139.63 70.6698 137.911 68.7568 135.789 68.7568C133.667 68.7568 131.947 70.6698 131.947 73.0296C131.947 75.3894 133.667 77.3024 135.789 77.3024Z" fill="#FFC9B0"/>
<path d="M131.242 73.0293C131.242 70.2461 133.28 68.0117 135.828 68.0117C138.376 68.0117 140.415 70.2853 140.415 73.0293C140.415 75.7733 138.376 78.0469 135.828 78.0469C133.28 78.0469 131.242 75.8125 131.242 73.0293ZM132.692 73.0293C132.692 74.9893 134.064 76.5965 135.789 76.5965C137.514 76.5965 138.886 74.9893 138.886 73.0293C138.886 71.0693 137.514 69.4621 135.789 69.4621C134.064 69.4621 132.692 71.0693 132.692 73.0293Z" fill="#093F68"/>
<path d="M149.234 87.0246C157.662 87.0246 165.189 76.6366 165.189 68.3262L163.19 69.071L163.268 63.191C163.268 63.191 152.723 60.4078 154.095 55.5078C154.095 55.5078 150.998 59.1926 146.569 59.1926C138.376 59.1926 135.201 56.9974 135.201 56.9974V72.011C135.162 80.2822 140.806 87.0246 149.234 87.0246Z" fill="#FFC9B0"/>
<path d="M134.417 72.0109V56.9973C134.417 56.6053 134.77 56.2525 135.162 56.2525C135.319 56.2525 135.436 56.2917 135.554 56.3701C135.593 56.3701 138.729 58.4085 146.53 58.4477C150.567 58.4477 153.468 55.0765 153.507 55.0373C153.782 54.7237 154.213 54.6845 154.527 54.9589C154.762 55.1549 154.84 55.4685 154.762 55.7429C154.566 56.4093 154.683 57.1541 155.036 57.7421C156.761 60.7213 163.347 62.5245 163.425 62.5245C163.739 62.6029 163.974 62.9165 163.974 63.2301L163.935 68.0125H164.915C165.307 67.8557 165.738 68.0517 165.855 68.4437C165.895 68.5221 165.895 68.6005 165.895 68.7181C165.895 77.3029 158.015 87.7693 149.195 87.7693C140.65 87.7301 134.417 81.1053 134.417 72.0109ZM163.464 69.7765C163.072 69.9333 162.68 69.7373 162.523 69.3453C162.484 69.2669 162.484 69.1493 162.484 69.0709L162.563 63.7789C160.799 63.2301 155.546 61.4661 153.86 58.4477C153.664 58.0949 153.507 57.7029 153.39 57.2717C152.018 58.4085 149.627 59.9373 146.647 59.9373H146.608C140.924 59.9373 137.592 58.8789 135.985 58.2125V72.0109C135.985 80.2821 141.591 86.2797 149.313 86.2797C155.781 86.2797 163.895 78.4397 164.523 69.4237L163.464 69.7765Z" fill="#093F68"/>
<path d="M153.037 71.5008C153.795 71.5008 154.409 70.8866 154.409 70.1288C154.409 69.3711 153.795 68.7568 153.037 68.7568C152.279 68.7568 151.665 69.3711 151.665 70.1288C151.665 70.8866 152.279 71.5008 153.037 71.5008Z" fill="#093F68"/>
<path d="M139.63 71.5008C140.388 71.5008 141.002 70.8866 141.002 70.1288C141.002 69.3711 140.388 68.7568 139.63 68.7568C138.873 68.7568 138.258 69.3711 138.258 70.1288C138.258 70.8866 138.873 71.5008 139.63 71.5008Z" fill="#093F68"/>
<path d="M145.628 74.2448C146.098 74.2448 146.569 74.2056 147.039 74.1272C147.431 74.0488 147.706 73.6568 147.627 73.2648C147.549 72.8728 147.157 72.5984 146.765 72.6768C146.216 72.7552 145.628 72.7944 145.079 72.7552C145.314 71.736 145.706 70.756 146.216 69.8544C146.412 69.5016 146.255 69.0312 145.902 68.8744C145.55 68.6784 145.079 68.8352 144.922 69.188C144.295 70.4032 143.315 72.5592 143.746 73.5392C143.864 73.8528 144.138 74.0488 144.452 74.1272C144.844 74.2056 145.236 74.2448 145.628 74.2448Z" fill="#093F68"/>
<path d="M158.172 67.8947C158.995 67.8947 159.662 67.2675 159.662 66.4443C159.662 65.7387 159.152 65.1115 158.447 64.9939L151.939 63.7395C151.116 63.6219 150.371 64.1707 150.254 64.9547C150.136 65.7387 150.607 66.4835 151.391 66.6403L157.898 67.8947C157.976 67.8947 158.094 67.8947 158.172 67.8947Z" fill="#093F68"/>
<path d="M138.219 66.6792H138.297L144.922 66.3656C145.746 66.3264 146.373 65.66 146.333 64.8368C146.294 64.0136 145.628 63.3864 144.805 63.4256L138.18 63.7392C137.357 63.7392 136.729 64.4448 136.729 65.2288C136.729 66.052 137.396 66.6792 138.219 66.6792Z" fill="#093F68"/>
<path d="M162.171 69.3846C162.171 69.3846 165.855 66.8366 167.815 70.1294C169.775 73.4222 167.894 78.9494 161.818 77.3422" fill="#FFC9B0"/>
<path d="M163.856 78.3608C165.542 78.4392 167.149 77.6944 168.207 76.3616C169.579 74.4016 169.697 71.8144 168.442 69.776C167.894 68.796 166.953 68.0904 165.894 67.8552C163.856 67.424 161.857 68.796 161.778 68.8352C161.426 69.0704 161.347 69.5408 161.582 69.8544C161.818 70.2072 162.288 70.2856 162.602 70.0504C162.602 70.0504 164.17 68.992 165.581 69.3056C166.286 69.4624 166.835 69.9328 167.188 70.56C168.09 72.0888 168.05 74.0488 167.031 75.4992C166.012 76.832 164.248 77.2632 162.014 76.6752C161.622 76.5576 161.23 76.7928 161.112 77.1848C160.994 77.5768 161.23 77.9688 161.622 78.0864C162.366 78.2432 163.111 78.3216 163.856 78.3608Z" fill="#093F68"/>
<path d="M147.314 80.7132C147.823 80.7132 148.333 80.674 148.842 80.5564C150.802 80.086 152.449 78.7532 153.664 76.558C153.86 76.2052 153.742 75.7348 153.39 75.5388C153.037 75.3428 152.566 75.4604 152.37 75.8132C151.351 77.6164 150.058 78.7532 148.49 79.106C145.863 79.7332 143.315 78.0084 143.315 78.0084C142.962 77.7732 142.531 77.8516 142.296 78.2044C142.061 78.5572 142.139 78.9884 142.492 79.2236C143.942 80.1252 145.589 80.6348 147.314 80.7132Z" fill="#093F68"/>
<path d="M144.373 167.502L142.413 173.421L126.969 168.325C126.694 168.247 126.537 167.933 126.616 167.659C126.655 167.502 126.812 167.345 127.008 167.306L136.024 165.032L144.373 167.502Z" fill="#5677FC"/>
<path d="M142.178 174.126L126.734 169.03C126.067 168.834 125.714 168.089 125.91 167.462C126.028 167.031 126.381 166.717 126.812 166.639L135.828 164.365C135.946 164.326 136.102 164.326 136.22 164.365L144.609 166.796C145.001 166.913 145.236 167.305 145.118 167.697C145.118 167.697 145.118 167.697 145.118 167.737L143.08 173.656C142.962 173.969 142.688 174.165 142.374 174.165C142.296 174.165 142.218 174.126 142.178 174.126ZM135.985 165.816L127.91 167.854L141.943 172.48L143.433 167.972L135.985 165.816Z" fill="#093F68"/>
<path d="M165.659 156.525L170.363 160.798L159.035 172.637C158.878 172.793 158.643 172.754 158.486 172.597C158.407 172.519 158.368 172.441 158.368 172.323L159.309 162.641L165.659 156.525Z" fill="#5677FC"/>
<path d="M158.289 173.382C157.858 173.186 157.584 172.716 157.662 172.245L158.603 162.563C158.603 162.406 158.681 162.21 158.838 162.092L165.189 155.977C165.463 155.703 165.933 155.703 166.208 155.977L170.912 160.25C171.225 160.524 171.225 160.995 170.951 161.308L159.583 173.108C159.387 173.304 159.113 173.46 158.799 173.46C158.603 173.5 158.407 173.46 158.289 173.382ZM165.698 157.545L160.053 162.994L159.23 171.383L169.344 160.838L165.698 157.545Z" fill="#093F68"/>
<path d="M140.65 148.372C140.806 148.372 140.924 148.254 141.002 148.137L150.998 119.638C151.077 119.442 150.998 119.246 150.802 119.168C150.606 119.089 150.41 119.168 150.332 119.364C150.332 119.364 150.332 119.364 150.332 119.403L140.336 147.862C140.258 148.058 140.375 148.254 140.571 148.333C140.61 148.372 140.65 148.372 140.65 148.372Z" fill="white"/>
<path d="M156.486 87.2197C156.486 87.2197 175.694 92.0021 178.321 93.7269C180.947 95.4517 176.126 110.465 176.126 110.465L169.305 109.681L170.442 99.4893L158.054 97.8821" fill="#F56132"/>
<path d="M176.165 111.054H176.087L169.266 110.27C168.952 110.231 168.717 109.956 168.756 109.604L169.854 99.9604L158.055 98.4316C157.741 98.3924 157.506 98.0788 157.545 97.7652C157.584 97.4516 157.898 97.2164 158.211 97.2556L170.559 98.902C170.873 98.9412 171.108 99.2156 171.069 99.5684L169.971 109.172L175.734 109.839C177.89 102.94 179.379 95.0996 178.007 94.2372C175.93 92.8652 161.661 89.1412 156.33 87.8084C156.016 87.73 155.82 87.4164 155.899 87.1028C155.977 86.7892 156.291 86.5932 156.604 86.6716C157.388 86.8676 175.93 91.4932 178.635 93.2572C179.497 93.806 180.438 95.4132 178.791 102.9C177.929 106.86 176.714 110.662 176.714 110.701C176.635 110.897 176.4 111.054 176.165 111.054Z" fill="#093F68"/>
<path d="M170.99 109.8C170.01 111.015 169.148 112.309 168.364 113.641C168.129 114.073 167.894 114.621 168.168 115.053C168.403 115.327 168.756 115.484 169.109 115.405C169.462 115.327 169.775 115.17 170.05 114.974C170.206 116.111 168.952 117.13 169.305 118.228C169.579 118.894 170.246 119.286 170.951 119.208C171.657 119.129 172.323 118.894 172.911 118.541C173.734 118.11 174.636 117.64 175.106 116.856C175.655 115.993 175.616 114.857 175.459 113.837C175.302 112.818 174.95 111.838 174.95 110.78" fill="#FFC9B0"/>
<path d="M170.912 119.835C170.05 119.835 169.031 119.365 168.756 118.424C168.521 117.64 168.835 116.934 169.148 116.307L169.305 115.993H169.227C168.639 116.111 168.051 115.876 167.698 115.405C167.188 114.621 167.698 113.681 167.894 113.406C168.678 112.034 169.579 110.741 170.559 109.486C170.755 109.212 171.108 109.173 171.383 109.369C171.657 109.565 171.696 109.917 171.5 110.192L171.461 110.231C170.52 111.446 169.658 112.701 168.874 113.994C168.56 114.543 168.599 114.739 168.639 114.778C168.717 114.857 168.874 114.896 168.991 114.857C169.266 114.778 169.501 114.661 169.697 114.504C169.971 114.347 170.324 114.425 170.52 114.7C170.559 114.778 170.599 114.857 170.599 114.935C170.638 115.601 170.481 116.229 170.128 116.817C169.893 117.326 169.697 117.757 169.815 118.11C169.932 118.463 170.481 118.698 170.912 118.698C171.5 118.62 172.088 118.424 172.637 118.11C173.343 117.757 174.166 117.326 174.597 116.621C174.989 116.033 175.067 115.17 174.832 114.033C174.793 113.72 174.715 113.445 174.636 113.132C174.44 112.387 174.323 111.642 174.323 110.897C174.323 110.584 174.597 110.309 174.911 110.309C175.224 110.309 175.499 110.584 175.499 110.897C175.538 111.564 175.616 112.23 175.812 112.897C175.891 113.21 175.969 113.524 176.008 113.837C176.283 115.249 176.126 116.385 175.616 117.248C175.028 118.228 174.009 118.737 173.186 119.169C172.519 119.561 171.775 119.835 170.991 119.913L170.912 119.835Z" fill="#093F68"/>
</svg>
