<svg width="831" height="263" viewBox="0 0 831 263" fill="none" xmlns="http://www.w3.org/2000/svg">
<g clip-path="url(#clip0_26_269)">
<path fill-rule="evenodd" clip-rule="evenodd" d="M135.074 131.652V196.129H167.324C192.442 154.156 192.868 153.152 203.622 131.652C214.376 110.152 223.806 88.8201 231.826 67.1748H167.562H167.324L135.074 131.652Z" fill="#15F5BA"/>
<path d="M311.395 193.811L262.76 67.6238H292.8L329.812 169.683H317.476L355.023 67.6238H384.706L335.536 193.811H311.398H311.395ZM423.683 195.776C414.266 195.776 405.894 193.841 398.561 189.968C391.229 186.095 385.479 180.704 381.307 173.793C377.135 166.883 375.048 159.078 375.048 150.378C375.048 141.679 377.106 133.903 381.218 127.053C385.33 120.202 390.902 114.81 397.937 110.878C404.969 106.946 412.896 104.981 421.718 104.981C430.302 104.981 437.869 106.827 444.425 110.522C450.981 114.216 456.137 119.34 459.892 125.894C463.648 132.447 465.524 139.955 465.524 148.414C465.524 149.962 465.435 151.6 465.256 153.33C465.078 155.057 464.751 157.054 464.272 159.319L389.353 159.498V140.731L452.649 140.553L440.848 148.417C440.729 143.412 439.953 139.272 438.523 135.997C437.093 132.721 434.975 130.219 432.175 128.489C429.374 126.762 425.945 125.897 421.893 125.897C417.602 125.897 413.877 126.881 410.719 128.845C407.562 130.813 405.117 133.583 403.387 137.156C401.659 140.731 400.794 145.079 400.794 150.203C400.794 155.328 401.719 159.706 403.565 163.341C405.411 166.976 408.034 169.775 411.433 171.74C414.831 173.704 418.854 174.688 423.501 174.688C427.792 174.688 431.666 173.942 435.124 172.453C438.582 170.964 441.621 168.729 444.243 165.751L459.261 180.763C454.971 185.768 449.785 189.522 443.705 192.025C437.624 194.528 430.949 195.779 423.68 195.779L423.683 195.776ZM520.774 195.776C511.833 195.776 503.728 193.811 496.458 189.879C489.185 185.947 483.465 180.525 479.293 173.615C475.122 166.705 473.034 158.959 473.034 150.378C473.034 141.679 475.152 133.903 479.383 127.053C483.614 120.202 489.367 114.81 496.637 110.878C503.906 106.946 512.074 104.981 521.134 104.981C527.928 104.981 534.157 106.144 539.819 108.468C545.48 110.792 550.517 114.275 554.926 118.924L537.404 136.439C535.376 134.174 533.025 132.507 530.343 131.434C527.661 130.361 524.592 129.826 521.134 129.826C517.2 129.826 513.713 130.691 510.674 132.418C507.635 134.144 505.251 136.528 503.523 139.566C501.796 142.603 500.931 146.149 500.931 150.2C500.931 154.251 501.796 157.827 503.523 160.924C505.251 164.021 507.665 166.464 510.763 168.253C513.861 170.04 517.319 170.934 521.134 170.934C524.711 170.934 527.898 170.31 530.699 169.059C533.5 167.808 535.915 166.051 537.943 163.786L555.286 181.301C550.758 186.069 545.632 189.671 539.908 192.114C534.187 194.557 527.809 195.779 520.777 195.779L520.774 195.776ZM607.851 195.776C597.48 195.776 588.569 194.079 581.121 190.681C573.67 187.284 566.846 182.13 560.646 175.22L578.885 157.167C582.938 161.815 587.439 165.417 592.384 167.979C597.332 170.541 603.082 171.822 609.638 171.822C615.6 171.822 620.217 170.749 623.497 168.603C626.773 166.457 628.415 163.479 628.415 159.666C628.415 156.209 627.341 153.409 625.198 151.267C623.051 149.121 620.22 147.275 616.706 145.727C613.189 144.178 609.314 142.689 605.083 141.259C600.852 139.83 596.651 138.192 592.476 136.343C588.305 134.498 584.46 132.173 580.943 129.374C577.425 126.574 574.595 123.058 572.451 118.828C570.304 114.599 569.231 109.267 569.231 102.832C569.231 95.0865 571.107 88.414 574.862 82.8144C578.617 77.2149 583.833 72.9559 590.508 70.0339C597.183 67.1153 604.872 65.656 613.575 65.656C622.397 65.656 630.473 67.2045 637.802 70.3047C645.134 73.4016 651.182 77.6342 655.951 82.996L637.712 101.049C633.898 97.117 630.053 94.1984 626.179 92.29C622.305 90.385 617.925 89.4309 613.037 89.4309C608.148 89.4309 604.274 90.3553 601.414 92.2009C598.554 94.0465 597.123 96.6977 597.123 100.154C597.123 103.37 598.197 105.962 600.34 107.93C602.487 109.894 605.318 111.595 608.832 113.024C612.35 114.454 616.224 115.883 620.455 117.313C624.686 118.743 628.887 120.41 633.062 122.318C637.234 124.223 641.078 126.637 644.596 129.559C648.113 132.477 650.944 136.172 653.087 140.639C655.234 145.106 656.304 150.619 656.304 157.173C656.304 169.208 652.014 178.65 643.43 185.504C634.846 192.355 622.985 195.782 607.848 195.782L607.851 195.776ZM696.718 194.168L660.958 106.946H690.459L713.167 176.118H702.261L725.506 106.946H755.007L717.817 194.168H696.718ZM674.368 230.452L700.474 174.15L717.817 194.168L702.439 230.452H674.368ZM793.81 195.957C788.684 195.957 783.647 195.303 778.702 193.993C773.755 192.682 769.167 190.807 764.936 188.363C760.705 185.92 757.098 183.091 754.119 179.875L769.676 164.146C772.536 167.243 775.934 169.657 779.868 171.383C783.802 173.11 788.092 173.975 792.743 173.975C795.96 173.975 798.434 173.5 800.164 172.545C801.892 171.591 802.757 170.281 802.757 168.613C802.757 166.467 801.713 164.83 799.629 163.697C797.542 162.565 794.89 161.551 791.673 160.66C788.456 159.765 785.057 158.784 781.48 157.711C777.903 156.638 774.508 155.149 771.287 153.244C768.07 151.339 765.448 148.688 763.42 145.291C761.392 141.893 760.381 137.575 760.381 132.332C760.381 126.732 761.811 121.876 764.672 117.765C767.532 113.655 771.585 110.406 776.83 108.025C782.074 105.642 788.215 104.45 795.246 104.45C802.638 104.45 809.462 105.731 815.721 108.293C821.98 110.855 827.076 114.639 831.01 119.644L815.453 135.373C812.712 132.157 809.644 129.892 806.245 128.581C802.846 127.271 799.54 126.617 796.32 126.617C793.222 126.617 790.896 127.063 789.347 127.957C787.798 128.852 787.022 130.133 787.022 131.8C787.022 133.587 788.036 135.016 790.061 136.089C792.086 137.162 794.711 138.116 797.928 138.948C801.145 139.784 804.544 140.794 808.121 141.986C811.698 143.178 815.093 144.786 818.314 146.813C821.531 148.84 824.153 151.551 826.181 154.945C828.209 158.342 829.22 162.779 829.22 168.26C829.22 176.719 826.032 183.454 819.655 188.456C813.277 193.461 804.666 195.964 793.816 195.964L793.81 195.957Z" fill="#211951"/>
<path fill-rule="evenodd" clip-rule="evenodd" d="M70.5725 2.69802C70.5725 38.3091 41.6955 67.1751 6.07068 67.1751C2.02466 88.6685 0 110.066 0 131.652C0 153.238 2.02466 174.636 6.07068 196.129C41.6955 196.129 70.5725 224.995 70.5725 260.606C92.0742 261.28 113.573 263.977 135.074 262.63C135.074 240.463 135.074 218.296 135.074 196.129C118.927 174.636 105.494 153.172 94.7298 131.652C83.9657 110.132 75.9265 88.6685 70.5725 67.1751H70.8103H102.822H135.071V0.674137C113.569 -0.672917 92.0709 0.000610254 70.5692 2.69802H70.5725Z" fill="#5677FC"/>
</g>
<defs>
<clipPath id="clip0_26_269">
<rect width="831" height="263" fill="white"/>
</clipPath>
</defs>
</svg>
