<svg width="601" height="191" viewBox="0 0 601 191" fill="none" xmlns="http://www.w3.org/2000/svg">
<path fill-rule="evenodd" clip-rule="evenodd" d="M97.8086 95.1532V141.724H121.093C139.229 111.407 139.536 110.683 147.301 95.1532C155.066 79.6239 161.874 64.2163 167.664 48.582H121.265H121.093L97.8086 95.1532Z" fill="white"/>
<path d="M225.115 140.051L190 48.9066H211.689L238.412 122.623H229.505L256.614 48.9066H278.046L242.544 140.051H225.117H225.115ZM306.188 141.47C299.389 141.47 293.344 140.072 288.05 137.275C282.756 134.478 278.604 130.583 275.592 125.592C272.58 120.601 271.073 114.963 271.073 108.68C271.073 102.396 272.559 96.7799 275.528 91.8316C278.497 86.8833 282.52 82.9891 287.599 80.1489C292.676 77.3087 298.399 75.8898 304.769 75.8898C310.967 75.8898 316.43 77.2228 321.164 79.8913C325.898 82.5598 329.62 86.2609 332.332 90.9946C335.043 95.7283 336.398 101.151 336.398 107.261C336.398 108.379 336.333 109.562 336.204 110.812C336.076 112.059 335.84 113.502 335.494 115.137L281.401 115.266V101.712L327.102 101.583L318.581 107.263C318.495 103.648 317.935 100.657 316.902 98.2918C315.87 95.9262 314.341 94.1186 312.319 92.869C310.297 91.6218 307.821 90.997 304.895 90.997C301.798 90.997 299.108 91.7076 296.828 93.1265C294.548 94.5478 292.783 96.5486 291.534 99.1289C290.287 101.712 289.662 104.852 289.662 108.553C289.662 112.254 290.329 115.417 291.663 118.042C292.996 120.668 294.889 122.69 297.343 124.109C299.797 125.528 302.701 126.238 306.057 126.238C309.154 126.238 311.952 125.699 314.449 124.624C316.945 123.548 319.139 121.934 321.033 119.783L331.876 130.626C328.778 134.242 325.034 136.953 320.644 138.761C316.254 140.568 311.434 141.472 306.186 141.472L306.188 141.47ZM376.289 141.47C369.834 141.47 363.982 140.051 358.733 137.21C353.482 134.37 349.351 130.455 346.339 125.463C343.328 120.472 341.82 114.878 341.82 108.68C341.82 102.396 343.349 96.7799 346.404 91.8316C349.459 86.8833 353.613 82.9891 358.862 80.1489C364.11 77.3087 370.008 75.8898 376.549 75.8898C381.454 75.8898 385.952 76.7292 390.039 78.408C394.127 80.0869 397.764 82.6028 400.947 85.9604L388.296 98.6114C386.832 96.9755 385.134 95.7712 383.198 94.9961C381.261 94.2211 379.046 93.8348 376.549 93.8348C373.709 93.8348 371.191 94.4596 368.997 95.7068C366.803 96.954 365.081 98.6758 363.834 100.87C362.587 103.064 361.962 105.625 361.962 108.551C361.962 111.477 362.587 114.06 363.834 116.296C365.081 118.533 366.824 120.298 369.061 121.591C371.298 122.881 373.795 123.527 376.549 123.527C379.132 123.527 381.433 123.076 383.455 122.172C385.477 121.269 387.221 120 388.685 118.364L401.207 131.015C397.938 134.459 394.237 137.06 390.104 138.825C385.974 140.59 381.369 141.472 376.292 141.472L376.289 141.47ZM439.16 141.47C431.672 141.47 425.238 140.244 419.86 137.79C414.48 135.336 409.554 131.614 405.077 126.622L418.246 113.583C421.172 116.94 424.422 119.542 427.992 121.393C431.565 123.243 435.716 124.168 440.45 124.168C444.754 124.168 448.088 123.393 450.456 121.843C452.822 120.293 454.007 118.142 454.007 115.388C454.007 112.891 453.232 110.869 451.685 109.321C450.134 107.771 448.091 106.438 445.553 105.32C443.014 104.201 440.216 103.126 437.162 102.093C434.107 101.06 431.073 99.8777 428.059 98.5422C425.047 97.2092 422.271 95.5303 419.732 93.5081C417.192 91.4858 415.148 88.9461 413.6 85.8913C412.05 82.8365 411.275 78.9851 411.275 74.3373C411.275 68.7428 412.63 63.9232 415.341 59.8787C418.053 55.8343 421.818 52.758 426.638 50.6475C431.457 48.5394 437.009 47.4854 443.293 47.4854C449.662 47.4854 455.493 48.6038 460.785 50.843C466.079 53.0799 470.445 56.1371 473.889 60.0099L460.72 73.0496C457.966 70.2094 455.19 68.1013 452.393 66.7229C449.595 65.3469 446.433 64.6577 442.904 64.6577C439.375 64.6577 436.577 65.3255 434.512 66.6585C432.447 67.9916 431.414 69.9065 431.414 72.4033C431.414 74.726 432.189 76.598 433.737 78.0193C435.287 79.4382 437.331 80.6664 439.868 81.6989C442.408 82.7315 445.205 83.7641 448.26 84.7967C451.315 85.8293 454.348 87.0336 457.362 88.4119C460.374 89.7879 463.15 91.5311 465.69 93.6416C468.23 95.7497 470.273 98.4182 471.821 101.645C473.371 104.871 474.144 108.854 474.144 113.587C474.144 122.28 471.046 129.1 464.848 134.051C458.65 138.999 450.087 141.474 439.158 141.474L439.16 141.47ZM503.323 140.308L477.504 77.3087H498.804L515.199 127.271H507.325L524.108 77.3087H545.409L518.557 140.308H503.323ZM487.186 166.516L506.035 125.85L518.557 140.308L507.454 166.516H487.186ZM573.424 141.601C569.723 141.601 566.087 141.129 562.517 140.182C558.944 139.235 555.632 137.881 552.577 136.116C549.522 134.351 546.918 132.307 544.767 129.985L555.999 118.624C558.065 120.861 560.518 122.604 563.359 123.851C566.199 125.098 569.297 125.723 572.654 125.723C574.977 125.723 576.763 125.38 578.013 124.691C579.26 124.002 579.885 123.055 579.885 121.85C579.885 120.3 579.131 119.118 577.626 118.3C576.119 117.482 574.204 116.75 571.882 116.106C569.559 115.459 567.105 114.751 564.522 113.976C561.94 113.201 559.488 112.126 557.163 110.75C554.84 109.374 552.947 107.459 551.483 105.005C550.018 102.551 549.289 99.4317 549.289 95.6448C549.289 91.6003 550.321 88.0924 552.386 85.1234C554.452 82.1544 557.378 79.8079 561.165 78.0885C564.952 76.3667 569.385 75.5058 574.462 75.5058C579.799 75.5058 584.726 76.4311 589.245 78.2816C593.764 80.1322 597.443 82.8651 600.284 86.4803L589.052 97.8411C587.072 95.5184 584.857 93.8825 582.403 92.9357C579.949 91.989 577.562 91.5168 575.237 91.5168C573 91.5168 571.321 91.8388 570.203 92.485C569.084 93.1313 568.524 94.0566 568.524 95.2609C568.524 96.551 569.256 97.5836 570.718 98.3586C572.18 99.1336 574.076 99.8228 576.398 100.424C578.721 101.027 581.175 101.757 583.757 102.618C586.34 103.479 588.792 104.64 591.117 106.104C593.439 107.568 595.333 109.526 596.797 111.978C598.261 114.432 598.991 117.637 598.991 121.595C598.991 127.705 596.69 132.57 592.085 136.183C587.48 139.798 581.263 141.606 573.429 141.606L573.424 141.601Z" fill="white"/>
<path fill-rule="evenodd" clip-rule="evenodd" d="M51.238 2.01122C51.238 27.7328 30.3884 48.5824 4.66681 48.5824C1.74553 64.107 0.283691 79.5623 0.283691 95.1536C0.283691 110.745 1.74553 126.2 4.66681 141.725C30.3884 141.725 51.238 162.574 51.238 188.296C66.7626 188.783 82.2847 190.731 97.8092 189.758C97.8092 173.747 97.8092 157.736 97.8092 141.725C86.1503 126.2 76.4517 110.697 68.6799 95.1536C60.9081 79.61 55.1037 64.107 51.238 48.5824H51.4097H74.5224H97.8069V0.549383C82.2823 -0.423583 66.7602 0.0629 51.2356 2.01122H51.238Z" fill="white"/>
</svg>
