<svg width="552" height="175" viewBox="0 0 552 175" fill="none" xmlns="http://www.w3.org/2000/svg">
<path fill-rule="evenodd" clip-rule="evenodd" d="M89.7207 87.7161V130.562H111.143C127.828 102.67 128.111 102.003 135.254 87.7161C142.398 73.429 148.662 59.2538 153.989 44.8701H111.301H111.143L89.7207 87.7161Z" fill="#15F5BA"/>
<path d="M206.844 129.022L174.538 45.1684H194.492L219.078 112.988H210.883L235.824 45.1684H255.541L222.88 129.022H206.846H206.844ZM281.432 130.327C275.177 130.327 269.616 129.042 264.745 126.468C259.874 123.895 256.055 120.312 253.284 115.72C250.513 111.128 249.126 105.941 249.126 100.16C249.126 94.3791 250.493 89.2123 253.224 84.6599C255.956 80.1074 259.657 76.5246 264.33 73.9116C269.001 71.2986 274.267 69.9932 280.127 69.9932C285.829 69.9932 290.855 71.2196 295.21 73.6747C299.565 76.1297 302.99 79.5347 305.485 83.8898C307.979 88.2448 309.225 93.2339 309.225 98.8548C309.225 99.8838 309.166 100.972 309.048 102.122C308.929 103.269 308.712 104.596 308.394 106.102L258.628 106.22V93.7495L300.673 93.631L292.834 98.857C292.755 95.531 292.24 92.7797 291.29 90.6033C290.34 88.4269 288.933 86.7639 287.073 85.6142C285.213 84.4668 282.935 83.892 280.243 83.892C277.393 83.892 274.918 84.5458 272.821 85.8512C270.724 87.1588 269.1 88.9995 267.95 91.3734C266.803 93.7495 266.228 96.6389 266.228 100.044C266.228 103.449 266.842 106.358 268.069 108.774C269.295 111.189 271.037 113.05 273.295 114.355C275.553 115.661 278.225 116.314 281.312 116.314C284.162 116.314 286.735 115.819 289.032 114.829C291.329 113.84 293.348 112.354 295.09 110.375L305.066 120.351C302.216 123.677 298.771 126.172 294.732 127.835C290.693 129.498 286.259 130.329 281.43 130.329L281.432 130.327ZM345.926 130.327C339.987 130.327 334.603 129.022 329.774 126.409C324.943 123.796 321.143 120.193 318.372 115.601C315.601 111.009 314.215 105.862 314.215 100.16C314.215 94.3791 315.621 89.2123 318.431 84.6599C321.242 80.1074 325.064 76.5246 329.893 73.9116C334.722 71.2986 340.147 69.9932 346.165 69.9932C350.678 69.9932 354.816 70.7655 358.577 72.31C362.337 73.8546 365.683 76.1692 368.612 79.2583L356.973 90.8973C355.626 89.3922 354.064 88.2843 352.282 87.5713C350.501 86.8582 348.462 86.5028 346.165 86.5028C343.552 86.5028 341.235 87.0776 339.217 88.2251C337.199 89.3725 335.615 90.9565 334.467 92.975C333.32 94.9934 332.745 97.3498 332.745 100.042C332.745 102.734 333.32 105.11 334.467 107.168C335.615 109.226 337.218 110.849 339.276 112.038C341.334 113.225 343.631 113.82 346.165 113.82C348.541 113.82 350.659 113.405 352.519 112.574C354.38 111.742 355.983 110.575 357.33 109.07L368.851 120.709C365.843 123.877 362.438 126.271 358.636 127.894C354.836 129.518 350.599 130.329 345.928 130.329L345.926 130.327ZM403.768 130.327C396.879 130.327 390.96 129.2 386.012 126.942C381.063 124.684 376.53 121.26 372.412 116.668L384.527 104.671C387.219 107.76 390.209 110.154 393.494 111.856C396.78 113.559 400.6 114.41 404.955 114.41C408.915 114.41 411.982 113.697 414.161 112.271C416.337 110.845 417.428 108.866 417.428 106.332C417.428 104.035 416.715 102.174 415.291 100.75C413.865 99.3243 411.984 98.0979 409.65 97.0689C407.313 96.04 404.74 95.0505 401.929 94.1005C399.119 93.1505 396.328 92.0623 393.555 90.8337C390.784 89.6073 388.23 88.0627 385.894 86.2022C383.557 84.3417 381.677 82.0052 380.253 79.1947C378.827 76.3842 378.114 72.841 378.114 68.5649C378.114 63.4179 379.36 58.9839 381.855 55.2629C384.349 51.5419 387.813 48.7117 392.247 46.77C396.681 44.8306 401.789 43.8608 407.57 43.8608C413.43 43.8608 418.794 44.8898 423.663 46.9499C428.533 49.0079 432.551 51.8206 435.719 55.3836L423.604 67.3802C421.07 64.7672 418.516 62.8277 415.942 61.5596C413.369 60.2937 410.46 59.6596 407.212 59.6596C403.965 59.6596 401.392 60.2739 399.492 61.5003C397.592 62.7268 396.642 64.4885 396.642 66.7856C396.642 68.9225 397.355 70.6448 398.779 71.9524C400.205 73.2578 402.085 74.3877 404.42 75.3377C406.756 76.2877 409.33 77.2377 412.14 78.1877C414.951 79.1376 417.741 80.2456 420.514 81.5137C423.285 82.7796 425.839 84.3834 428.176 86.3251C430.512 88.2645 432.393 90.7196 433.817 93.688C435.243 96.6565 435.953 100.32 435.953 104.675C435.953 112.672 433.103 118.947 427.401 123.502C421.699 128.054 413.821 130.332 403.766 130.332L403.768 130.327ZM462.799 129.259L439.045 71.2986H458.641L473.725 117.264H466.48L481.921 71.2986H501.518L476.814 129.259H462.799ZM447.952 153.371L465.293 115.957L476.814 129.259L466.599 153.371H447.952ZM527.293 130.448C523.888 130.448 520.542 130.014 517.257 129.143C513.971 128.272 510.923 127.025 508.113 125.402C505.303 123.778 502.907 121.898 500.928 119.761L511.261 109.309C513.161 111.367 515.419 112.971 518.032 114.118C520.645 115.266 523.495 115.841 526.584 115.841C528.721 115.841 530.364 115.525 531.514 114.891C532.661 114.256 533.236 113.385 533.236 112.278C533.236 110.851 532.543 109.763 531.158 109.011C529.772 108.258 528.01 107.585 525.873 106.992C523.736 106.398 521.479 105.746 519.103 105.033C516.727 104.32 514.471 103.331 512.332 102.065C510.195 100.799 508.453 99.0369 507.106 96.7793C505.759 94.5217 505.088 91.652 505.088 88.168C505.088 84.447 506.038 81.2197 507.938 78.4882C509.837 75.7567 512.529 73.5979 516.013 72.016C519.498 70.432 523.576 69.64 528.247 69.64C533.157 69.64 537.69 70.4912 541.847 72.1937C546.005 73.8963 549.39 76.4105 552.003 79.7366L541.67 90.1887C539.849 88.0517 537.811 86.5467 535.553 85.6757C533.295 84.8047 531.099 84.3703 528.96 84.3703C526.902 84.3703 525.358 84.6664 524.329 85.261C523.3 85.8556 522.784 86.7068 522.784 87.8148C522.784 89.0017 523.458 89.9517 524.803 90.6647C526.147 91.3778 527.892 92.0118 530.029 92.5647C532.165 93.1198 534.423 93.7911 536.799 94.5832C539.175 95.3752 541.431 96.4437 543.57 97.7908C545.707 99.1379 547.449 100.939 548.796 103.194C550.143 105.452 550.814 108.401 550.814 112.043C550.814 117.664 548.697 122.139 544.46 125.463C540.224 128.789 534.504 130.452 527.297 130.452L527.293 130.448Z" fill="white"/>
<path fill-rule="evenodd" clip-rule="evenodd" d="M46.8753 2.02432C46.8753 25.6885 27.6935 44.8703 4.02934 44.8703C1.34173 59.153 -0.00317383 73.3721 -0.00317383 87.7163C-0.00317383 102.06 1.34173 116.28 4.02934 130.562C27.6935 130.562 46.8753 149.744 46.8753 173.408C61.1581 173.856 75.4386 175.648 89.7213 174.753C89.7213 160.023 89.7213 145.293 89.7213 130.562C78.995 116.28 70.0721 102.017 62.922 87.7163C55.7719 73.416 50.4317 59.153 46.8753 44.8703H47.0333H68.2972H89.7191V0.679422C75.4364 -0.215717 61.1559 0.231852 46.8731 2.02432H46.8753Z" fill="#F1F5F9"/>
</svg>
