<svg width="156" height="176" viewBox="0 0 156 176" fill="none" xmlns="http://www.w3.org/2000/svg">
<path fill-rule="evenodd" clip-rule="evenodd" d="M47.8425 2.29477C47.8425 25.9903 28.6352 45.1976 4.93972 45.1976C2.24854 59.4992 0.901855 73.7372 0.901855 88.1004C0.901855 102.464 2.24854 116.702 4.93972 131.003C28.6352 131.003 47.8425 150.21 47.8425 173.906C62.1442 174.354 76.4437 176.149 90.7453 175.253C90.7453 160.503 90.7453 145.753 90.7453 131.003C80.0048 116.702 71.0701 102.42 63.9105 88.1004C56.7509 73.7811 51.4037 59.4992 47.8425 45.1976H48.0007H69.2928H90.7432V0.948082C76.4415 0.0517558 62.142 0.499919 47.8403 2.29477H47.8425Z" fill="#5677FC"/>
<path fill-rule="evenodd" clip-rule="evenodd" d="M90.7451 88V130.903H112.195C128.903 102.974 129.186 102.306 136.339 88C143.492 73.6939 149.764 59.4999 155.098 45.0972H112.354H112.195L90.7451 88Z" fill="#15F5BA"/>
</svg>
