<svg width="143" height="162" viewBox="0 0 143 162" fill="none" xmlns="http://www.w3.org/2000/svg">
<path fill-rule="evenodd" clip-rule="evenodd" d="M44.0072 2.50519C44.0072 24.3051 26.263 41.9758 4.37238 41.9758C1.8862 55.1333 0.64209 68.2322 0.64209 81.4464C0.64209 94.6605 1.8862 107.759 4.37238 120.917C26.263 120.917 44.0072 138.588 44.0072 160.388C57.2195 160.8 70.4298 162.451 83.6421 161.626C83.6421 148.057 83.6421 134.487 83.6421 120.917C73.7197 107.759 65.4655 94.6201 58.8513 81.4464C52.237 68.2727 47.2971 55.1333 44.0072 41.9758H44.1534H63.8237H83.6401V1.26624C70.4278 0.441619 57.2175 0.853929 44.0052 2.50519H44.0072Z" fill="black"/>
<path fill-rule="evenodd" clip-rule="evenodd" d="M83.6421 81.354V120.854H103.308C118.626 95.1403 118.885 94.5254 125.443 81.354C132.001 68.1826 137.752 55.1144 142.642 41.854H103.453H103.308L83.6421 81.354Z" fill="black"/>
</svg>
