<svg width="143" height="162" viewBox="0 0 143 162" fill="none" xmlns="http://www.w3.org/2000/svg">
<path fill-rule="evenodd" clip-rule="evenodd" d="M44.0072 1.78888C44.0072 23.5888 26.263 41.2595 4.37238 41.2595C1.8862 54.417 0.64209 67.5159 0.64209 80.7301C0.64209 93.9442 1.8862 107.043 4.37238 120.201C26.263 120.201 44.0072 137.871 44.0072 159.671C57.2195 160.084 70.4298 161.735 83.6421 160.91C83.6421 147.34 83.6421 133.77 83.6421 120.201C73.7197 107.043 65.4655 93.9038 58.8513 80.7301C52.237 67.5564 47.2971 54.417 44.0072 41.2595H44.1534H63.8237H83.6401V0.54993C70.4278 -0.274689 57.2175 0.137621 44.0052 1.78888H44.0072Z" fill="white"/>
<path fill-rule="evenodd" clip-rule="evenodd" d="M83.6421 80.6377V120.138H103.308C118.626 94.424 118.885 93.8091 125.443 80.6377C132.001 67.4663 137.752 54.3981 142.642 41.1377H103.453H103.308L83.6421 80.6377Z" fill="white"/>
</svg>
