<svg width="325" height="96" viewBox="0 0 325 96" fill="none" xmlns="http://www.w3.org/2000/svg">
<path fill-rule="evenodd" clip-rule="evenodd" d="M49.2852 48.0548V71.5901H61.0522C70.2174 56.2691 70.3728 55.9027 74.2968 48.0548C78.2207 40.2069 81.6614 32.4205 84.5875 24.5196H61.139H61.0522L49.2852 48.0548Z" fill="#15F5BA"/>
<path fill-rule="evenodd" clip-rule="evenodd" d="M25.7503 0.984558C25.7503 13.9832 15.2137 24.5198 2.21505 24.5198C0.738753 32.3653 0 40.1758 0 48.0551C0 55.9343 0.738753 63.7448 2.21505 71.5903C15.2137 71.5903 25.7503 82.1269 25.7503 95.1256C33.5958 95.3714 41.4401 96.356 49.2856 95.8643C49.2856 87.773 49.2856 79.6817 49.2856 71.5903C43.3936 63.7448 38.4923 55.9102 34.5647 48.0551C30.6372 40.1999 27.7039 32.3653 25.7503 24.5198H25.8371H37.5173H49.2844V0.245805C41.4389 -0.245894 33.5946 -4.45934e-05 25.7491 0.984558H25.7503Z" fill="#5677FC"/>
<path d="M113.333 50.2021L95.5875 4.14148H106.548L120.053 41.3949H115.552L129.252 4.14148H140.083L122.142 50.2021H113.334H113.333ZM154.305 50.9191C150.869 50.9191 147.814 50.2129 145.138 48.7993C142.463 47.3857 140.365 45.4177 138.843 42.8953C137.32 40.3729 136.559 37.524 136.559 34.3484C136.559 31.1729 137.31 28.3347 138.81 25.8341C140.31 23.3334 142.343 21.3654 144.91 19.9301C147.476 18.4947 150.369 17.7777 153.587 17.7777C156.72 17.7777 159.481 18.4514 161.873 19.7999C164.265 21.1485 166.146 23.0189 167.517 25.4111C168.887 27.8033 169.571 30.5438 169.571 33.6314C169.571 34.1966 169.539 34.7943 169.474 35.4258C169.409 36.0561 169.289 36.7852 169.115 37.6119L141.778 37.677V30.827L164.874 30.7619L160.568 33.6326C160.524 31.8056 160.241 30.2943 159.719 29.0988C159.197 27.9033 158.425 26.9898 157.403 26.3583C156.381 25.728 155.13 25.4123 153.651 25.4123C152.086 25.4123 150.726 25.7714 149.574 26.4885C148.422 27.2067 147.53 28.2179 146.899 29.5218C146.269 30.827 145.953 32.4142 145.953 34.2845C145.953 36.1549 146.29 37.7529 146.964 39.0798C147.638 40.4067 148.595 41.4286 149.835 42.1457C151.075 42.8628 152.543 43.2219 154.238 43.2219C155.804 43.2219 157.217 42.9495 158.479 42.406C159.741 41.8625 160.85 41.0466 161.807 39.9596L167.286 45.4394C165.721 47.2664 163.829 48.6366 161.61 49.5501C159.391 50.4636 156.956 50.9203 154.303 50.9203L154.305 50.9191ZM189.731 50.9191C186.469 50.9191 183.511 50.2021 180.859 48.7668C178.205 47.3314 176.118 45.3526 174.596 42.8302C173.073 40.3079 172.312 37.4806 172.312 34.3484C172.312 31.1729 173.084 28.3347 174.628 25.8341C176.172 23.3334 178.271 21.3654 180.924 19.9301C183.576 18.4947 186.557 17.7777 189.862 17.7777C192.341 17.7777 194.614 18.2019 196.68 19.0503C198.745 19.8987 200.583 21.1702 202.192 22.867L195.799 29.2603C195.059 28.4336 194.201 27.825 193.222 27.4333C192.244 27.0416 191.124 26.8464 189.862 26.8464C188.427 26.8464 187.154 27.1621 186.046 27.7924C184.937 28.4227 184.067 29.2928 183.437 30.4016C182.806 31.5103 182.49 32.8046 182.49 34.2833C182.49 35.7621 182.806 37.0672 183.437 38.1976C184.067 39.3281 184.948 40.2199 186.078 40.8731C187.209 41.525 188.47 41.8516 189.862 41.8516C191.167 41.8516 192.33 41.6239 193.352 41.1671C194.374 40.7104 195.255 40.0692 195.995 39.2425L202.324 45.6358C200.671 47.376 198.801 48.6908 196.712 49.5826C194.625 50.4744 192.298 50.9203 189.732 50.9203L189.731 50.9191ZM221.503 50.9191C217.719 50.9191 214.468 50.2997 211.75 49.0596C209.031 47.8195 206.542 45.9383 204.279 43.4159L210.934 36.8262C212.413 38.523 214.056 39.8378 215.86 40.773C217.665 41.7082 219.763 42.1758 222.155 42.1758C224.331 42.1758 226.015 41.7842 227.212 41.0008C228.408 40.2175 229.007 39.1304 229.007 37.7385C229.007 36.4767 228.615 35.4547 227.833 34.6726C227.049 33.8893 226.017 33.2156 224.734 32.6504C223.451 32.0852 222.037 31.5416 220.493 31.0198C218.95 30.498 217.417 29.9002 215.893 29.2253C214.371 28.5517 212.969 27.7033 211.685 26.6813C210.402 25.6593 209.369 24.3759 208.587 22.8321C207.803 21.2883 207.412 19.342 207.412 16.9931C207.412 14.1659 208.096 11.7303 209.466 9.68635C210.837 7.64243 212.74 6.08779 215.175 5.02124C217.611 3.95589 220.416 3.42322 223.592 3.42322C226.811 3.42322 229.757 3.98843 232.432 5.12006C235.107 6.25049 237.314 7.79548 239.054 9.75263L232.399 16.3424C231.007 14.907 229.604 13.8417 228.191 13.1451C226.777 12.4497 225.179 12.1015 223.395 12.1015C221.612 12.1015 220.198 12.4389 219.155 13.1126C218.111 13.7863 217.589 14.754 217.589 16.0158C217.589 17.1896 217.981 18.1356 218.763 18.8539C219.546 19.5709 220.579 20.1916 221.861 20.7134C223.145 21.2352 224.558 21.7571 226.102 22.2789C227.646 22.8007 229.179 23.4093 230.702 24.1059C232.224 24.8013 233.627 25.6822 234.911 26.7488C236.194 27.8141 237.227 29.1627 238.009 30.7932C238.792 32.4238 239.183 34.4364 239.183 36.8286C239.183 41.2214 237.617 44.6681 234.485 47.1699C231.353 49.6706 227.025 50.9216 221.502 50.9216L221.503 50.9191ZM253.929 50.3322L240.881 18.4947H251.645L259.931 43.7437H255.951L264.433 18.4947H275.197L261.627 50.3322H253.929ZM245.774 63.5768L255.299 43.0255L261.627 50.3322L256.016 63.5768H245.774ZM289.355 50.9854C287.485 50.9854 285.647 50.7468 283.843 50.2684C282.038 49.7899 280.364 49.1054 278.82 48.2136C277.276 47.3218 275.96 46.289 274.873 45.1152L280.549 39.3739C281.593 40.5043 282.833 41.3853 284.268 42.0155C285.704 42.6458 287.269 42.9616 288.966 42.9616C290.14 42.9616 291.043 42.788 291.674 42.4398C292.304 42.0915 292.62 41.613 292.62 41.0044C292.62 40.2211 292.239 39.6233 291.479 39.21C290.717 38.7966 289.749 38.4266 288.576 38.1012C287.402 37.7746 286.162 37.4167 284.857 37.025C283.551 36.6334 282.313 36.0898 281.138 35.3945C279.964 34.6991 279.007 33.7314 278.267 32.4913C277.527 31.2512 277.158 29.6749 277.158 27.7611C277.158 25.7172 277.68 23.9444 278.724 22.444C279.767 20.9436 281.246 19.7577 283.16 18.8888C285.074 18.0187 287.314 17.5837 289.88 17.5837C292.577 17.5837 295.067 18.0513 297.35 18.9864C299.634 19.9216 301.494 21.3027 302.929 23.1297L297.253 28.871C296.252 27.6972 295.133 26.8705 293.893 26.3921C292.653 25.9136 291.446 25.675 290.271 25.675C289.141 25.675 288.292 25.8377 287.727 26.1643C287.162 26.4909 286.879 26.9585 286.879 27.5671C286.879 28.2191 287.249 28.7409 287.988 29.1326C288.726 29.5242 289.684 29.8725 290.858 30.1762C292.032 30.4811 293.272 30.8499 294.577 31.2849C295.882 31.72 297.121 32.3069 298.296 33.0469C299.47 33.7868 300.427 34.7762 301.167 36.0151C301.907 37.2552 302.276 38.8749 302.276 40.8755C302.276 43.9631 301.113 46.4215 298.786 48.2473C296.459 50.0743 293.317 50.9878 289.358 50.9878L289.355 50.9854Z" fill="#211951"/>
<path d="M97.7012 86.5768V69.1222H99.7125V75.5654H99.883C100.031 75.3381 100.235 75.0484 100.497 74.6961C100.764 74.3381 101.144 74.02 101.639 73.7416C102.139 73.4575 102.815 73.3154 103.667 73.3154C104.769 73.3154 105.741 73.591 106.582 74.1421C107.423 74.6933 108.079 75.4745 108.551 76.4859C109.022 77.4972 109.258 78.6904 109.258 80.0654C109.258 81.4518 109.022 82.6535 108.551 83.6705C108.079 84.6819 107.426 85.466 106.59 86.0228C105.755 86.5739 104.792 86.8495 103.701 86.8495C102.86 86.8495 102.187 86.7103 101.681 86.4319C101.176 86.1478 100.786 85.8268 100.514 85.4688C100.241 85.1052 100.031 84.8041 99.883 84.5654H99.6443V86.5768H97.7012ZM99.6784 80.0313C99.6784 81.02 99.8233 81.8921 100.113 82.6478C100.403 83.3978 100.826 83.9859 101.383 84.412C101.94 84.8325 102.622 85.0427 103.428 85.0427C104.269 85.0427 104.971 84.8211 105.534 84.3779C106.102 83.9291 106.528 83.3268 106.812 82.5711C107.102 81.8097 107.247 80.9631 107.247 80.0313C107.247 79.1109 107.105 78.2813 106.82 77.5427C106.542 76.7984 106.119 76.2103 105.551 75.7785C104.988 75.341 104.281 75.1222 103.428 75.1222C102.61 75.1222 101.923 75.3296 101.366 75.7444C100.809 76.1535 100.389 76.7274 100.105 77.466C99.8205 78.1989 99.6784 79.0541 99.6784 80.0313ZM113.161 91.4859C112.82 91.4859 112.517 91.4575 112.249 91.4006C111.982 91.3495 111.798 91.2984 111.695 91.2472L112.207 89.4745C112.695 89.5995 113.127 89.645 113.502 89.6109C113.877 89.5768 114.21 89.4092 114.499 89.108C114.795 88.8126 115.065 88.3325 115.309 87.6677L115.684 86.645L110.843 73.4859H113.025L116.639 83.9177H116.775L120.389 73.4859H122.57L117.014 88.4859C116.764 89.162 116.454 89.7217 116.085 90.1649C115.715 90.6137 115.286 90.9461 114.798 91.162C114.315 91.3779 113.769 91.4859 113.161 91.4859ZM132.248 86.5768V69.1222H134.362V76.895H143.668V69.1222H145.782V86.5768H143.668V78.77H134.362V86.5768H132.248ZM152.127 69.1222V86.5768H150.014V69.1222H152.127ZM156.365 69.1222H158.888L164.82 83.6109H165.024L170.956 69.1222H173.479V86.5768H171.502V73.3154H171.331L165.877 86.5768H163.967L158.513 73.3154H158.342V86.5768H156.365V69.1222ZM178.433 86.5768H176.217L182.626 69.1222H184.808L191.217 86.5768H189.001L183.785 71.8836H183.649L178.433 86.5768ZM179.251 79.7586H188.183V81.6336H179.251V79.7586ZM190.942 70.9972V69.1222H204.033V70.9972H198.544V86.5768H196.431V70.9972H190.942ZM209.409 69.1222V86.5768H207.295V69.1222H209.409ZM213.646 86.5768V69.1222H215.76V77.7813H215.965L223.806 69.1222H226.567L219.237 76.9972L226.567 86.5768H224.01L217.942 78.4631L215.76 80.9177V86.5768H213.646ZM230.019 86.5768H227.803L234.212 69.1222H236.394L242.803 86.5768H240.587L235.371 71.8836H235.235L230.019 86.5768ZM230.837 79.7586H239.769V81.6336H230.837V79.7586ZM252.987 69.1222L258.169 83.8154H258.374L263.556 69.1222H265.771L259.362 86.5768H257.181L250.771 69.1222H252.987ZM272.487 86.8495C271.226 86.8495 270.138 86.5711 269.223 86.0143C268.314 85.4518 267.612 84.6677 267.118 83.662C266.629 82.6506 266.385 81.4745 266.385 80.1336C266.385 78.7927 266.629 77.6109 267.118 76.5881C267.612 75.5597 268.3 74.7586 269.181 74.1847C270.067 73.6052 271.101 73.3154 272.283 73.3154C272.965 73.3154 273.638 73.4291 274.303 73.6563C274.967 73.8836 275.573 74.2529 276.118 74.7643C276.664 75.27 277.098 75.9404 277.422 76.7756C277.746 77.6109 277.908 78.6393 277.908 79.8609V80.7131H267.817V78.9745H275.862C275.862 78.2359 275.715 77.5768 275.419 76.9972C275.129 76.4177 274.715 75.9603 274.175 75.6251C273.641 75.2898 273.01 75.1222 272.283 75.1222C271.482 75.1222 270.789 75.3211 270.203 75.7188C269.624 76.1109 269.178 76.6222 268.865 77.2529C268.553 77.8836 268.396 78.5597 268.396 79.2813V80.4404C268.396 81.4291 268.567 82.2671 268.908 82.9546C269.254 83.6364 269.735 84.1563 270.348 84.5143C270.962 84.8666 271.675 85.0427 272.487 85.0427C273.016 85.0427 273.493 84.9688 273.919 84.8211C274.351 84.6677 274.723 84.4404 275.036 84.1393C275.348 83.8325 275.59 83.4518 275.76 82.9972L277.703 83.5427C277.499 84.2018 277.155 84.7813 276.672 85.2813C276.189 85.7756 275.592 86.162 274.882 86.4404C274.172 86.7131 273.374 86.8495 272.487 86.8495ZM282.842 81.8041L282.808 79.3154H283.217L288.945 73.4859H291.433L285.331 79.6563H285.161L282.842 81.8041ZM280.967 86.5768V69.1222H282.979V86.5768H280.967ZM289.286 86.5768L284.172 80.0995L285.604 78.7018L291.842 86.5768H289.286ZM299.715 73.4859V75.1904H292.931V73.4859H299.715ZM294.909 70.3495H296.92V82.8268C296.92 83.395 297.002 83.8211 297.167 84.1052C297.338 84.3836 297.553 84.5711 297.815 84.6677C298.082 84.7586 298.363 84.8041 298.659 84.8041C298.88 84.8041 299.062 84.7927 299.204 84.77C299.346 84.7416 299.46 84.7188 299.545 84.7018L299.954 86.5086C299.818 86.5597 299.627 86.6109 299.383 86.662C299.139 86.7188 298.829 86.7472 298.454 86.7472C297.886 86.7472 297.329 86.6251 296.784 86.3808C296.244 86.1364 295.795 85.7643 295.437 85.2643C295.085 84.7643 294.909 84.1336 294.909 83.3722V70.3495ZM307.918 86.8495C306.737 86.8495 305.7 86.5683 304.808 86.0058C303.921 85.4433 303.228 84.6563 302.728 83.645C302.234 82.6336 301.987 81.4518 301.987 80.0995C301.987 78.7359 302.234 77.5455 302.728 76.5285C303.228 75.5114 303.921 74.7217 304.808 74.1592C305.7 73.5967 306.737 73.3154 307.918 73.3154C309.1 73.3154 310.134 73.5967 311.021 74.1592C311.913 74.7217 312.606 75.5114 313.1 76.5285C313.6 77.5455 313.85 78.7359 313.85 80.0995C313.85 81.4518 313.6 82.6336 313.1 83.645C312.606 84.6563 311.913 85.4433 311.021 86.0058C310.134 86.5683 309.1 86.8495 307.918 86.8495ZM307.918 85.0427C308.816 85.0427 309.555 84.8126 310.134 84.3524C310.714 83.8921 311.143 83.287 311.421 82.537C311.7 81.787 311.839 80.9745 311.839 80.0995C311.839 79.2245 311.7 78.4092 311.421 77.6535C311.143 76.8978 310.714 76.287 310.134 75.8211C309.555 75.3552 308.816 75.1222 307.918 75.1222C307.021 75.1222 306.282 75.3552 305.703 75.8211C305.123 76.287 304.694 76.8978 304.416 77.6535C304.137 78.4092 303.998 79.2245 303.998 80.0995C303.998 80.9745 304.137 81.787 304.416 82.537C304.694 83.287 305.123 83.8921 305.703 84.3524C306.282 84.8126 307.021 85.0427 307.918 85.0427ZM316.921 86.5768V73.4859H318.864V75.4631H319C319.239 74.8154 319.671 74.2899 320.296 73.8864C320.921 73.483 321.625 73.2813 322.409 73.2813C322.557 73.2813 322.742 73.2842 322.963 73.2898C323.185 73.2955 323.352 73.3041 323.466 73.3154V75.3609C323.398 75.3438 323.242 75.3183 322.997 75.2842C322.759 75.2444 322.506 75.2245 322.239 75.2245C321.602 75.2245 321.034 75.358 320.534 75.6251C320.04 75.8864 319.648 76.2501 319.358 76.716C319.074 77.1762 318.932 77.7018 318.932 78.2927V86.5768H316.921Z" fill="#211951"/>
</svg>
