<svg width="601" height="191" viewBox="0 0 601 191" fill="none" xmlns="http://www.w3.org/2000/svg">
<path fill-rule="evenodd" clip-rule="evenodd" d="M97.8086 96.0546V142.626H121.093C139.229 112.309 139.536 111.584 147.301 96.0546C155.066 80.5253 161.874 65.1176 167.664 49.4834H121.265H121.093L97.8086 96.0546Z" fill="black"/>
<path d="M225.115 140.952L190 49.808H211.689L238.412 123.525H229.505L256.614 49.808H278.046L242.544 140.952H225.117H225.115ZM306.188 142.371C299.389 142.371 293.344 140.974 288.05 138.176C282.756 135.379 278.604 131.485 275.592 126.493C272.58 121.502 271.073 115.865 271.073 109.581C271.073 103.297 272.559 97.6813 275.528 92.733C278.497 87.7847 282.52 83.8904 287.599 81.0502C292.676 78.21 298.399 76.7911 304.769 76.7911C310.967 76.7911 316.43 78.1242 321.164 80.7927C325.898 83.4612 329.62 87.1623 332.332 91.8959C335.043 96.6296 336.398 102.052 336.398 108.162C336.398 109.281 336.333 110.463 336.204 111.713C336.076 112.96 335.84 114.403 335.494 116.039L281.401 116.168V102.613L327.102 102.484L318.581 108.165C318.495 104.549 317.935 101.559 316.902 99.1932C315.87 96.8276 314.341 95.0199 312.319 93.7703C310.297 92.5231 307.821 91.8983 304.895 91.8983C301.798 91.8983 299.108 92.609 296.828 94.0279C294.548 95.4492 292.783 97.45 291.534 100.03C290.287 102.613 289.662 105.754 289.662 109.455C289.662 113.156 290.329 116.318 291.663 118.943C292.996 121.569 294.889 123.591 297.343 125.01C299.797 126.429 302.701 127.14 306.057 127.14C309.154 127.14 311.952 126.601 314.449 125.525C316.945 124.45 319.139 122.835 321.033 120.684L331.876 131.528C328.778 135.143 325.034 137.854 320.644 139.662C316.254 141.47 311.434 142.373 306.186 142.373L306.188 142.371ZM376.289 142.371C369.834 142.371 363.982 140.952 358.733 138.112C353.482 135.272 349.351 131.356 346.339 126.365C343.328 121.373 341.82 115.779 341.82 109.581C341.82 103.297 343.349 97.6813 346.404 92.733C349.459 87.7847 353.613 83.8904 358.862 81.0502C364.11 78.21 370.008 76.7911 376.549 76.7911C381.454 76.7911 385.952 77.6305 390.039 79.3094C394.127 80.9882 397.764 83.5041 400.947 86.8618L388.296 99.5127C386.832 97.8768 385.134 96.6725 383.198 95.8975C381.261 95.1225 379.046 94.7362 376.549 94.7362C373.709 94.7362 371.191 95.3609 368.997 96.6082C366.803 97.8554 365.081 99.5771 363.834 101.771C362.587 103.965 361.962 106.526 361.962 109.452C361.962 112.378 362.587 114.961 363.834 117.198C365.081 119.435 366.824 121.199 369.061 122.492C371.298 123.782 373.795 124.428 376.549 124.428C379.132 124.428 381.433 123.978 383.455 123.074C385.477 122.17 387.221 120.901 388.685 119.265L401.207 131.916C397.938 135.36 394.237 137.962 390.104 139.726C385.974 141.491 381.369 142.373 376.292 142.373L376.289 142.371ZM439.16 142.371C431.672 142.371 425.238 141.145 419.86 138.691C414.48 136.237 409.554 132.515 405.077 127.524L418.246 114.484C421.172 117.842 424.422 120.443 427.992 122.294C431.565 124.145 435.716 125.07 440.45 125.07C444.754 125.07 448.088 124.295 450.456 122.745C452.822 121.195 454.007 119.044 454.007 116.289C454.007 113.792 453.232 111.77 451.685 110.223C450.134 108.672 448.091 107.339 445.553 106.221C443.014 105.103 440.216 104.027 437.162 102.994C434.107 101.962 431.073 100.779 428.059 99.4436C425.047 98.1105 422.271 96.4317 419.732 94.4094C417.192 92.3872 415.148 89.8475 413.6 86.7926C412.05 83.7378 411.275 79.8865 411.275 75.2387C411.275 69.6441 412.63 64.8246 415.341 60.7801C418.053 56.7356 421.818 53.6593 426.638 51.5489C431.457 49.4408 437.009 48.3867 443.293 48.3867C449.662 48.3867 455.493 49.5052 460.785 51.7444C466.079 53.9813 470.445 57.0385 473.889 60.9113L460.72 73.9509C457.966 71.1107 455.19 69.0026 452.393 67.6243C449.595 66.2483 446.433 65.5591 442.904 65.5591C439.375 65.5591 436.577 66.2268 434.512 67.5599C432.447 68.8929 431.414 70.8079 431.414 73.3047C431.414 75.6274 432.189 77.4994 433.737 78.9207C435.287 80.3396 437.331 81.5677 439.868 82.6003C442.408 83.6329 445.205 84.6655 448.26 85.6981C451.315 86.7306 454.348 87.9349 457.362 89.3133C460.374 90.6893 463.15 92.4325 465.69 94.543C468.23 96.6511 470.273 99.3196 471.821 102.546C473.371 105.773 474.144 109.755 474.144 114.489C474.144 123.181 471.046 130.001 464.848 134.952C458.65 139.9 450.087 142.376 439.158 142.376L439.16 142.371ZM503.323 141.21L477.504 78.21H498.804L515.199 128.172H507.325L524.108 78.21H545.409L518.557 141.21H503.323ZM487.186 167.418L506.035 126.751L518.557 141.21L507.454 167.418H487.186ZM573.424 142.502C569.723 142.502 566.087 142.03 562.517 141.083C558.944 140.136 555.632 138.782 552.577 137.017C549.522 135.253 546.918 133.209 544.767 130.886L555.999 119.525C558.065 121.762 560.518 123.505 563.359 124.753C566.199 126 569.297 126.625 572.654 126.625C574.977 126.625 576.763 126.281 578.013 125.592C579.26 124.903 579.885 123.956 579.885 122.752C579.885 121.202 579.131 120.019 577.626 119.201C576.119 118.383 574.204 117.651 571.882 117.007C569.559 116.361 567.105 115.653 564.522 114.878C561.94 114.102 559.488 113.027 557.163 111.651C554.84 110.275 552.947 108.36 551.483 105.906C550.018 103.452 549.289 100.333 549.289 96.5462C549.289 92.5017 550.321 88.9937 552.386 86.0248C554.452 83.0558 557.378 80.7092 561.165 78.9898C564.952 77.2681 569.385 76.4072 574.462 76.4072C579.799 76.4072 584.726 77.3325 589.245 79.183C593.764 81.0335 597.443 83.7664 600.284 87.3817L589.052 98.7425C587.072 96.4198 584.857 94.7838 582.403 93.8371C579.949 92.8904 577.562 92.4182 575.237 92.4182C573 92.4182 571.321 92.7401 570.203 93.3864C569.084 94.0327 568.524 94.9579 568.524 96.1622C568.524 97.4524 569.256 98.4849 570.718 99.26C572.18 100.035 574.076 100.724 576.398 101.325C578.721 101.928 581.175 102.658 583.757 103.519C586.34 104.38 588.792 105.541 591.117 107.006C593.439 108.47 595.333 110.428 596.797 112.879C598.261 115.333 598.991 118.538 598.991 122.497C598.991 128.606 596.69 133.471 592.085 137.084C587.48 140.699 581.263 142.507 573.429 142.507L573.424 142.502Z" fill="black"/>
<path fill-rule="evenodd" clip-rule="evenodd" d="M51.238 2.91258C51.238 28.6342 30.3884 49.4838 4.66681 49.4838C1.74553 65.0083 0.283691 80.4637 0.283691 96.055C0.283691 111.646 1.74553 127.102 4.66681 142.626C30.3884 142.626 51.238 163.476 51.238 189.197C66.7626 189.684 82.2847 191.632 97.8092 190.659C97.8092 174.648 97.8092 158.637 97.8092 142.626C86.1503 127.102 76.4517 111.599 68.6799 96.055C60.9081 80.5114 55.1037 65.0083 51.238 49.4838H51.4097H74.5224H97.8068V1.45075C82.2823 0.477784 66.7602 0.964267 51.2356 2.91258H51.238Z" fill="black"/>
</svg>
